<?xml version="1.0" standalone="no"?>
<!DOCTYPE svg PUBLIC "-//W3C//DTD SVG 20010904//EN"
 "http://www.w3.org/TR/2001/REC-SVG-20010904/DTD/svg10.dtd">
<svg version="1.0" xmlns="http://www.w3.org/2000/svg"
 width="460.000000pt" height="460.000000pt" viewBox="0 0 460.000000 460.000000"
 preserveAspectRatio="xMidYMid meet">
<metadata>
Created by potrace 1.14, written by Peter Selinger 2001-2017
</metadata>
<g transform="translate(0.000000,460.000000) scale(0.100000,-0.100000)"
fill="#000000" stroke="none">
<path d="M2673 4455 c0 -8 4 -12 9 -9 5 3 6 10 3 15 -9 13 -12 11 -12 -6z"/>
<path d="M2770 4466 c0 -3 9 -10 20 -16 11 -6 20 -8 20 -6 0 3 -9 10 -20 16
-11 6 -20 8 -20 6z"/>
<path d="M2712 4451 c-7 -4 -10 -15 -6 -25 6 -16 5 -17 -17 -4 -13 7 -27 18
-31 23 -5 6 -8 4 -8 -5 0 -13 -1 -13 -10 0 -8 13 -10 12 -10 -4 0 -12 5 -16
15 -13 8 4 17 2 20 -4 4 -5 11 -7 16 -4 5 3 6 -1 2 -10 -5 -13 -7 -14 -14 -3
-7 10 -9 10 -9 0 0 -7 -11 -18 -25 -24 -19 -9 -22 -14 -13 -21 9 -6 8 -7 -5
-3 -10 3 -20 0 -23 -8 -3 -8 -14 -13 -25 -11 -11 2 -17 0 -14 -5 3 -4 13 -7
23 -5 9 1 22 -2 29 -7 7 -6 14 -5 18 2 4 6 1 9 -6 8 -6 -2 -13 2 -16 8 -2 7 4
11 14 10 11 0 17 5 15 13 -2 9 4 12 17 8 13 -3 18 -1 14 8 -5 13 20 15 33 3 3
-4 12 -4 20 -1 11 4 12 9 3 19 -13 16 2 19 17 4 8 -8 15 -6 25 6 9 12 10 15 2
10 -7 -4 -13 -3 -13 2 0 18 13 20 35 6 19 -12 25 -13 31 -2 4 7 3 10 -1 5 -5
-4 -19 0 -32 8 -13 9 -23 13 -23 10 0 -3 -8 -1 -18 4 -10 5 -24 6 -30 2z m27
-17 c4 3 7 -4 7 -14 0 -18 -2 -18 -18 -3 -10 8 -15 20 -11 26 5 8 8 7 11 -1 2
-7 7 -10 11 -8z m-29 -45 c0 -6 -4 -7 -10 -4 -5 3 -10 11 -10 16 0 6 5 7 10 4
6 -3 10 -11 10 -16z"/>
<path d="M2516 4442 c-3 -5 1 -9 9 -9 8 0 12 4 9 9 -3 4 -7 8 -9 8 -2 0 -6 -4
-9 -8z"/>
<path d="M2576 4435 c-3 -9 -10 -13 -16 -10 -5 3 -10 2 -10 -3 0 -12 -32 -11
-49 2 -12 9 -12 8 -1 -11 11 -16 17 -19 27 -11 9 7 13 7 13 -1 0 -6 -3 -11 -7
-12 -5 0 -20 -2 -35 -4 -15 -2 -30 1 -33 6 -3 5 1 6 9 3 10 -4 16 -1 16 7 0 7
-3 9 -7 6 -3 -4 -13 -1 -22 5 -9 7 -13 8 -9 4 4 -5 2 -16 -5 -24 -9 -13 -9
-14 1 -8 6 4 12 3 12 -1 0 -5 -10 -14 -22 -22 -22 -13 -22 -13 -8 4 13 17 13
18 -1 13 -9 -3 -22 -2 -29 2 -14 9 -67 -37 -62 -53 1 -5 -2 -5 -8 -2 -6 4 -9
13 -6 21 3 7 2 15 -2 18 -12 7 -12 -36 -1 -50 7 -8 6 -15 -2 -20 -8 -4 -9 -3
-5 5 8 12 -3 18 -46 25 -15 3 -31 0 -34 -6 -4 -6 -2 -8 4 -4 6 3 13 2 17 -3 3
-5 14 -8 25 -6 12 2 18 0 15 -6 -4 -5 -10 -7 -15 -4 -5 3 -14 -3 -20 -12 -11
-17 -11 -17 -6 1 5 15 2 17 -14 13 -11 -3 -20 0 -20 6 0 7 -5 5 -10 -3 -12
-18 -14 -40 -2 -25 11 15 29 16 29 0 0 -7 -6 -11 -13 -8 -6 2 -19 -6 -28 -19
-17 -23 -17 -23 -12 12 3 19 3 29 0 23 -3 -7 -13 -13 -22 -13 -15 0 -15 -2 -2
-10 13 -8 12 -11 -5 -24 -18 -13 -23 -13 -45 1 l-25 16 25 -28 25 -28 -28 18
c-29 19 -50 13 -27 -8 10 -10 11 -9 5 2 -6 10 -4 12 4 7 9 -6 8 -13 -5 -27
-19 -21 -29 -25 -18 -7 5 8 2 9 -11 4 -14 -5 -16 -4 -7 7 9 10 9 14 -1 14 -7
0 -14 -9 -14 -19 -1 -10 3 -18 10 -18 6 0 2 -6 -8 -14 -21 -15 -49 -10 -38 7
3 6 1 7 -5 3 -7 -4 -17 -16 -23 -28 -9 -16 -8 -19 2 -13 8 5 10 4 5 -3 -7 -12
-33 -12 -54 2 -8 5 -12 3 -10 -6 2 -7 -3 -12 -11 -10 -12 3 -12 1 0 -15 8 -10
19 -21 24 -26 6 -4 -1 -6 -15 -5 -15 2 -24 -2 -23 -9 4 -17 -25 -9 -40 11 -12
16 -14 16 -14 2 0 -9 4 -16 9 -16 5 0 6 -5 3 -10 -5 -7 -11 -8 -19 -1 -8 7
-17 6 -26 -1 -12 -8 -12 -9 2 -4 12 3 22 -2 29 -17 11 -20 11 -21 -4 -8 -11 9
-17 10 -18 2 -1 -6 -2 -16 -3 -23 0 -6 -9 -12 -19 -14 -9 -1 -15 2 -11 7 3 5
9 7 13 5 3 -3 7 4 7 15 0 18 -2 18 -11 5 -9 -12 -15 -13 -25 -3 -12 10 -12 9
-1 -5 10 -14 9 -17 -9 -23 -11 -3 -17 -11 -14 -17 4 -6 9 -5 15 3 4 7 11 10
15 7 3 -4 -1 -14 -10 -23 -9 -9 -16 -12 -16 -6 0 6 -11 10 -25 9 -14 -1 -25
-6 -25 -11 0 -5 9 -5 20 -2 12 4 20 2 20 -5 0 -6 -4 -8 -10 -5 -5 3 -10 -1
-10 -9 0 -9 -5 -16 -11 -16 -5 0 -8 -4 -5 -9 4 -5 -4 -7 -16 -3 -17 4 -20 2
-15 -11 3 -8 -1 -21 -9 -27 -8 -7 -14 -9 -14 -4 0 5 -5 2 -11 -6 -8 -12 -9
-10 -4 8 3 12 2 22 -3 22 -5 0 -9 -10 -8 -22 1 -16 7 -22 19 -20 9 2 17 -2 17
-8 0 -6 4 -9 9 -5 5 3 17 -2 25 -11 15 -14 20 -10 18 16 0 3 7 6 17 6 12 0 17
-6 13 -18 -2 -10 1 -18 7 -18 7 0 9 6 5 13 -4 6 2 4 12 -6 16 -15 17 -19 4
-27 -8 -5 -11 -12 -7 -16 4 -4 2 -13 -5 -21 -6 -7 -11 -26 -12 -41 -1 -15 -6
-26 -12 -25 -6 1 -11 -3 -12 -10 0 -7 -3 -22 -6 -35 -3 -12 -1 -20 3 -18 4 3
8 -1 8 -9 0 -11 -5 -12 -21 -3 -20 11 -20 10 -3 -9 19 -22 22 -33 6 -33 -5 0
-7 5 -4 10 3 6 2 10 -4 10 -17 0 -24 -22 -10 -32 10 -7 6 -8 -13 -5 -23 3 -26
1 -18 -12 10 -19 -6 -55 -21 -46 -5 4 -9 1 -9 -5 0 -7 -6 -8 -18 -1 -16 9 -18
6 -14 -20 3 -18 0 -29 -7 -29 -7 0 -9 5 -6 10 9 15 -12 12 -28 -5 -8 -8 -18
-11 -22 -7 -5 4 -4 1 0 -7 6 -11 4 -13 -8 -8 -9 3 -19 3 -21 -2 -9 -13 28 -9
45 5 13 12 18 11 35 -2 18 -14 18 -14 -5 -3 -21 10 -23 9 -18 -4 4 -12 2 -14
-10 -10 -12 5 -14 3 -8 -7 6 -9 4 -11 -4 -6 -15 9 -39 -20 -36 -43 1 -9 0 -10
-2 -3 -9 25 -29 9 -24 -20 0 -4 -6 -5 -15 -1 -13 5 -13 8 -2 15 10 8 9 9 -3 5
-9 -3 -23 0 -30 6 -11 10 -11 9 0 -5 14 -19 2 -25 -15 -8 -7 7 -11 6 -11 -4 0
-8 4 -13 8 -10 4 2 11 -1 15 -7 4 -7 3 -9 -3 -6 -6 4 -16 0 -23 -8 -6 -7 -19
-11 -28 -9 -15 5 -15 4 1 -6 9 -6 23 -8 30 -4 6 4 2 -3 -11 -15 -12 -12 -20
-26 -17 -31 3 -5 1 -11 -4 -15 -10 -5 -7 27 3 43 3 5 -1 9 -8 9 -8 0 -12 -7
-8 -15 4 -11 2 -13 -9 -7 -12 8 -12 6 0 -8 7 -9 10 -17 5 -17 -5 0 0 -7 10
-15 23 -17 14 -20 -15 -4 -11 5 -17 15 -13 22 4 7 3 8 -1 4 -5 -4 -10 -15 -11
-23 -1 -9 0 -13 3 -10 7 7 33 -13 33 -24 0 -4 -13 -13 -30 -20 -16 -7 -28 -16
-25 -20 3 -5 -4 -6 -15 -3 -11 3 -17 9 -14 14 3 5 10 7 15 3 5 -3 8 0 7 7 -2
6 3 14 11 17 9 3 11 0 6 -8 -6 -9 -3 -9 14 -1 11 7 21 14 21 16 0 4 -53 -1
-57 -5 -2 -1 -9 -3 -15 -4 -7 0 -14 -7 -14 -13 -1 -7 -2 -18 -3 -24 0 -5 -6
-7 -13 -3 -7 4 -2 -7 11 -24 12 -18 27 -32 32 -32 6 0 7 -5 3 -11 -5 -8 -10
-6 -16 5 -10 18 -34 21 -43 6 -3 -6 1 -7 9 -4 9 3 17 1 17 -5 3 -26 4 -30 12
-37 4 -4 7 -12 7 -18 0 -6 -5 -4 -10 4 -8 13 -10 12 -10 -2 0 -10 -5 -18 -10
-18 -7 0 -7 8 1 23 6 12 8 19 4 15 -5 -4 -15 -2 -24 5 -14 11 -14 10 -2 -6 13
-16 13 -20 0 -28 -10 -6 -11 -9 -1 -9 8 0 10 -5 5 -12 -4 -7 -8 -20 -10 -28
-1 -8 -12 -23 -24 -32 -11 -10 -16 -18 -11 -18 6 0 14 5 17 10 4 6 11 8 16 4
6 -3 3 -12 -8 -20 -16 -12 -16 -15 -3 -25 12 -8 9 -9 -12 -5 -15 3 -30 2 -33
-4 -8 -13 19 -52 31 -42 4 4 2 -2 -6 -13 -21 -30 -24 -32 -17 -12 4 9 2 17 -4
17 -6 0 -9 -12 -7 -27 2 -17 8 -27 16 -25 8 1 11 -2 7 -8 -3 -6 -10 -8 -15 -5
-10 6 -23 -12 -27 -35 -1 -8 -6 -16 -11 -18 -5 -1 -18 -9 -28 -17 -15 -12 -16
-14 -2 -9 13 4 15 1 11 -17 -4 -15 -2 -20 5 -15 6 3 9 15 7 26 -2 11 0 20 4
20 5 0 8 -13 7 -29 0 -16 -4 -27 -8 -25 -5 3 -8 -3 -8 -13 0 -15 -2 -16 -10
-3 -5 8 -13 11 -17 6 -4 -4 0 -13 10 -21 16 -11 15 -12 -8 -12 -20 0 -24 3
-20 17 3 10 1 21 -4 25 -7 4 -9 -1 -5 -12 4 -14 2 -13 -14 5 -12 12 -27 20
-35 16 -17 -6 -18 10 -3 36 5 8 6 12 1 8 -4 -4 -13 -3 -20 2 -8 7 -12 5 -12
-5 0 -8 3 -12 7 -10 4 2 7 -2 7 -10 0 -19 -5 -19 -23 0 -9 8 -12 15 -7 15 5 0
10 12 11 28 1 16 -1 22 -6 15 -5 -9 -12 -6 -21 10 -13 20 -13 21 2 9 9 -8 18
-9 21 -4 6 9 -21 27 -36 24 -4 -1 -5 5 -2 13 4 8 2 15 -4 15 -6 0 -13 -6 -15
-12 -4 -10 -6 -10 -6 -1 -2 24 22 25 41 2 15 -20 17 -21 12 -4 -5 17 -3 16 16
-5 l22 -25 -19 33 c-10 18 -19 28 -21 23 -2 -6 -13 -4 -27 5 -13 9 -28 15 -32
15 -4 -1 -8 2 -8 7 0 4 -10 18 -21 30 -13 14 -20 32 -17 45 4 20 3 20 -12 -3
l-16 -25 7 25 c4 14 11 28 16 31 7 4 7 9 0 13 -5 3 -12 -1 -16 -9 -3 -8 -13
-15 -23 -14 -16 0 -16 1 2 9 11 5 16 9 11 9 -5 1 -3 8 4 16 15 18 0 20 -20 3
-12 -11 -12 -10 -1 4 10 14 9 18 -6 27 -23 14 -8 14 18 1 26 -14 24 -3 -4 22
-12 11 -16 17 -9 13 6 -3 12 -2 12 4 0 5 -6 11 -12 14 -7 2 0 4 15 4 25 0 26
-1 13 -16 -14 -15 -13 -17 4 -18 15 -1 19 4 16 20 -1 11 -8 23 -14 25 -6 2 -8
11 -5 20 4 14 3 14 -5 2 -6 -8 -8 -18 -5 -23 3 -5 -5 -3 -18 3 -32 17 -32 17
-14 24 9 3 13 2 10 -4 -3 -6 -2 -10 4 -10 5 0 9 9 8 20 -1 20 -17 29 -17 10 0
-5 -7 -10 -15 -10 -8 0 -15 7 -15 16 0 9 -5 12 -11 8 -7 -4 -10 -1 -7 7 3 8
10 14 15 14 6 0 14 3 18 7 8 8 -16 5 -30 -4 -5 -3 -17 1 -25 10 -13 14 -12 15
3 9 9 -3 19 -2 22 3 4 6 1 10 -5 10 -7 0 -8 5 -3 13 4 6 8 30 8 51 0 26 5 41
15 43 12 4 12 3 1 -5 -9 -7 -10 -12 -2 -16 6 -4 11 -2 11 3 0 6 3 10 8 10 26
-4 29 4 9 24 -12 13 -25 22 -29 20 -4 -2 -9 1 -13 7 -3 5 -15 10 -26 10 -11 0
-17 5 -14 10 4 6 3 9 -2 8 -4 -1 -18 3 -30 10 -14 8 -24 9 -28 2 -8 -13 -25
-13 -25 1 0 5 5 7 10 4 6 -3 10 -2 10 4 0 5 -5 13 -10 16 -6 4 -7 12 -3 18 5
7 8 19 7 27 -1 8 -2 21 -3 28 0 7 -6 10 -13 6 -7 -5 -8 -3 -3 6 6 10 11 9 21
-4 7 -10 11 -23 10 -29 -2 -7 -1 -9 1 -4 3 4 10 4 16 0 7 -3 9 -3 5 2 -4 4 -2
15 5 24 11 14 10 15 -7 1 -18 -14 -19 -13 -13 3 16 40 17 51 4 28 -9 -16 -17
-20 -21 -12 -4 6 -13 11 -19 10 -24 -3 -37 1 -37 12 0 5 6 7 13 3 6 -4 4 2 -6
13 -9 11 -14 23 -10 28 5 4 3 5 -4 1 -7 -4 -10 -14 -7 -24 4 -9 -3 -3 -14 13
-12 18 -16 36 -12 45 5 9 3 23 -4 33 -12 16 -14 16 -30 -1 -9 -10 -16 -25 -16
-33 0 -12 -2 -11 -10 1 -6 9 -10 10 -10 3 0 -6 4 -14 8 -17 9 -5 34 8 33 18
-3 18 0 26 8 26 10 0 9 -26 -2 -36 -4 -4 1 -17 10 -28 18 -21 18 -21 -3 -3
-11 9 -24 17 -29 17 -4 0 -1 -8 6 -17 13 -17 12 -17 -5 -3 -16 13 -20 12 -31
-4 -13 -17 -14 -17 -24 1 -6 10 -11 13 -11 6 0 -6 4 -14 8 -17 5 -3 8 -13 7
-23 -1 -21 -35 -64 -46 -57 -4 2 -6 -4 -4 -13 1 -10 -3 -24 -9 -32 -8 -11 -8
-13 0 -8 7 4 14 0 17 -8 5 -11 1 -12 -18 -5 -33 13 -32 4 3 -15 27 -16 27 -16
2 -11 -26 5 -71 -19 -49 -26 7 -2 13 -12 15 -22 2 -16 1 -16 -15 -2 -10 9 -22
16 -27 16 -5 0 -2 -5 6 -10 13 -9 13 -10 0 -11 -8 -1 -17 -1 -20 -1 -3 0 -7
-13 -8 -29 -2 -22 1 -28 10 -23 7 4 10 3 5 -1 -4 -5 -17 -10 -29 -12 -16 -3
-18 0 -10 10 7 8 8 18 1 27 -9 13 -10 13 -8 0 1 -8 -1 -23 -6 -34 -5 -12 -3
-21 6 -28 11 -8 10 -9 -4 -4 -12 4 -20 -1 -27 -18 -5 -13 -14 -27 -20 -31 -5
-3 -8 -11 -4 -16 3 -5 0 -8 -8 -7 -7 2 -12 -3 -10 -10 1 -8 -7 -7 -25 5 -15
10 -24 12 -19 5 9 -16 -12 -44 -27 -35 -6 3 -7 1 -3 -6 4 -6 0 -14 -8 -17 -9
-3 -14 -10 -11 -14 3 -5 -3 -13 -12 -19 -10 -6 -12 -11 -5 -11 6 0 12 -10 12
-22 0 -19 2 -20 10 -8 6 9 10 10 10 3 0 -6 -4 -15 -10 -18 -5 -3 -10 -13 -10
-22 0 -13 3 -13 18 -2 14 11 15 11 5 0 -6 -7 -9 -20 -6 -27 3 -8 0 -14 -7 -14
-6 0 -9 4 -6 9 3 5 -2 15 -11 22 -14 12 -16 12 -8 0 6 -11 4 -13 -11 -8 -15 6
-15 4 4 -11 18 -14 20 -20 10 -30 -6 -6 -8 -12 -2 -12 5 0 2 -5 -6 -11 -13 -9
-12 -10 3 -5 19 6 24 -10 5 -17 -10 -4 -10 -6 0 -6 7 -1 10 -6 6 -13 -4 -7 -3
-8 5 -4 6 4 9 11 7 15 -3 3 4 7 15 7 18 0 18 -2 5 -12 -9 -6 -14 -14 -11 -17
3 -4 2 -5 -1 -2 -12 8 -46 -17 -40 -30 3 -8 1 -17 -5 -21 -5 -3 -7 -14 -4 -25
5 -15 1 -19 -17 -20 -13 -1 -26 -1 -30 0 -4 0 -7 -609 -8 -1354 l0 -1355 453
0 453 1 -1 38 c0 27 -4 37 -13 34 -7 -3 -9 -10 -4 -17 13 -17 9 -39 -8 -43 -9
-3 -11 -1 -5 4 14 10 13 22 -5 53 -18 31 -22 57 -11 64 4 3 7 -6 5 -19 -1 -16
2 -23 8 -19 7 5 8 2 3 -5 -6 -10 -3 -11 15 -1 20 11 20 13 6 29 -9 10 -13 21
-9 26 5 4 2 5 -4 1 -9 -5 -13 0 -13 13 0 11 -5 23 -10 26 -6 4 -8 11 -5 16 4
5 1 9 -4 9 -14 0 -14 -6 0 -32 7 -13 8 -23 1 -30 -7 -7 -10 -4 -9 8 1 11 -3
18 -10 17 -9 -2 -10 4 -3 23 13 32 13 34 -3 30 -6 -1 -9 -1 -4 2 4 2 12 13 18
25 9 18 9 20 -2 10 -16 -16 -29 -17 -29 -2 0 5 5 7 10 4 6 -3 10 1 10 9 0 9 6
16 13 16 7 0 8 3 2 8 -6 4 -11 27 -11 52 -1 57 -5 72 -24 87 -13 11 -13 12 3
7 16 -6 22 4 18 33 -1 7 3 13 9 13 6 0 9 -4 6 -9 -3 -5 1 -12 10 -15 13 -5 12
1 -5 30 -12 19 -17 32 -11 29 5 -3 10 -1 10 4 0 6 5 11 11 11 8 0 7 -6 -2 -17
-13 -15 -12 -15 8 -2 15 9 18 16 11 20 -16 10 -17 49 -2 49 7 0 15 4 18 9 3 5
-2 8 -12 7 -9 0 -16 5 -14 13 1 7 -3 20 -10 29 -8 9 -8 13 -2 9 7 -4 14 -1 17
6 7 18 -8 43 -17 29 -3 -6 -1 -13 4 -15 6 -3 5 -4 -2 -3 -8 2 -12 17 -11 39 1
20 -3 37 -8 37 -5 0 -8 -5 -6 -11 1 -6 -5 -14 -13 -16 -12 -4 -12 -3 -1 5 9 7
10 12 2 16 -18 12 -12 36 11 46 13 5 17 9 10 9 -7 1 -21 -3 -31 -8 -13 -7 -18
-6 -18 4 0 8 4 12 9 9 4 -3 8 13 8 36 0 25 -4 39 -10 35 -5 -3 -10 -1 -10 4 0
15 6 14 38 -6 l27 -17 -19 22 c-11 12 -16 25 -13 29 4 3 1 13 -5 22 -7 9 -2 7
11 -4 l24 -20 -7 20 c-4 11 -9 28 -11 38 -4 15 -2 17 10 7 8 -7 12 -16 9 -21
-3 -5 0 -17 5 -26 9 -15 10 -12 7 12 -3 17 -7 41 -10 53 -4 20 -3 22 10 11 10
-8 18 -9 25 -2 8 8 7 13 -2 18 -8 5 -10 4 -5 -3 10 -17 1 -15 -13 2 -10 12 -8
14 12 12 26 -3 33 19 10 28 -8 3 -11 1 -8 -4 3 -6 1 -10 -4 -10 -16 0 -13 20
4 26 8 4 23 0 33 -7 15 -13 16 -12 4 3 -10 13 -10 17 0 20 8 3 6 7 -6 11 -9 4
-15 3 -12 -1 2 -4 -4 -9 -15 -9 -17 -2 -18 0 -4 13 8 9 20 12 26 8 9 -5 10 0
6 15 -4 18 -3 20 9 10 7 -6 11 -16 7 -23 -4 -7 -1 -6 9 1 8 7 19 9 23 5 5 -4
5 -1 1 6 -4 6 -2 12 3 12 18 0 26 -5 23 -13 -1 -5 3 -5 9 -2 8 5 8 10 0 18
-14 14 -14 37 0 37 5 0 7 -4 4 -10 -3 -5 -1 -10 4 -10 6 0 11 5 11 11 0 5 4 8
9 4 5 -3 12 -1 15 4 4 5 1 13 -5 17 -8 5 -9 3 -4 -6 5 -9 4 -11 -4 -6 -8 6 -9
12 -2 20 6 7 7 17 3 22 -4 5 -3 6 2 2 5 -4 16 -2 25 4 10 8 9 4 -3 -10 -11
-12 -15 -22 -10 -22 5 0 15 9 22 20 7 12 18 18 25 13 7 -4 7 -1 -2 10 -15 19
-26 23 -15 5 5 -7 3 -8 -5 -4 -9 6 -9 12 3 25 13 14 13 20 3 31 -10 12 -9 12
4 2 9 -6 19 -9 22 -5 4 3 13 0 21 -6 10 -8 16 -9 21 -1 4 6 1 9 -6 8 -7 -2
-13 2 -14 7 0 6 -4 15 -8 22 -11 18 24 34 48 21 16 -9 18 -8 8 2 -13 14 -7 40
9 40 7 0 6 -5 -1 -14 -9 -10 -8 -15 3 -19 9 -4 18 -1 22 5 4 7 3 8 -4 4 -7 -4
-12 -2 -12 3 0 6 6 11 13 11 6 0 4 5 -5 11 -10 5 -18 15 -18 22 0 8 4 6 11 -3
9 -12 10 -11 6 7 -4 16 -1 20 10 16 13 -5 13 -3 3 17 -7 12 -7 20 -2 16 6 -3
13 -2 16 3 3 5 -1 12 -9 15 -16 6 -16 26 0 39 6 4 4 11 -5 17 -11 7 -11 10 -2
10 8 0 10 5 6 13 -4 6 -3 8 1 4 13 -11 15 -38 5 -57 -6 -12 -5 -17 5 -17 7 0
11 6 8 14 -3 7 0 13 7 13 8 0 9 4 4 12 -14 20 -11 63 4 60 7 -1 15 5 18 13 3
8 11 12 16 9 6 -4 6 -9 -2 -14 -8 -5 -5 -9 9 -13 12 -3 18 -1 15 4 -9 15 37 4
48 -12 8 -11 9 -10 4 5 -5 14 -3 17 11 12 15 -6 16 -5 6 5 -7 7 -13 18 -13 23
0 6 5 3 11 -7 6 -9 15 -15 20 -12 5 4 7 11 4 16 -4 5 -1 9 4 9 6 0 11 -5 11
-11 0 -5 4 -8 9 -5 5 4 8 -5 6 -19 -2 -25 -2 -25 17 -8 15 14 21 14 27 4 5 -7
10 -11 12 -10 2 2 14 -6 27 -16 26 -23 30 -47 5 -38 -15 6 -16 5 -3 -9 13 -14
16 -14 28 1 12 14 13 12 7 -11 -5 -28 1 -33 34 -28 12 1 12 -1 4 -12 -12 -14
-12 -30 2 -60 7 -18 25 -15 25 3 0 6 -5 7 -12 3 -7 -5 -8 -3 -3 6 5 8 4 11 -1
7 -6 -3 -11 4 -11 16 -2 17 0 19 7 7 5 -8 14 -15 20 -15 5 0 10 -3 10 -7 0 -5
0 -12 0 -18 0 -5 -10 -19 -22 -31 l-23 -21 22 11 c20 10 44 -1 26 -12 -5 -2
-3 -3 3 -1 6 1 18 -3 25 -9 7 -7 5 -1 -6 12 -16 20 -17 23 -4 19 13 -5 16 0
14 23 -2 26 8 33 11 8 1 -5 2 -13 3 -19 0 -5 6 -10 12 -10 5 0 8 4 5 8 -2 4
-1 14 3 21 6 9 11 10 15 2 4 -6 2 -11 -4 -11 -6 0 -8 -5 -5 -10 4 -6 11 -7 17
-4 6 4 8 2 4 -4 -3 -6 2 -13 13 -17 18 -6 18 -7 -4 -29 -16 -16 -22 -31 -18
-45 4 -15 1 -21 -8 -19 -9 2 -13 -5 -12 -17 1 -11 -4 -23 -10 -27 -7 -4 -7 -8
-2 -8 20 0 38 17 26 24 -6 4 -11 11 -11 16 0 12 41 4 54 -11 8 -8 5 -8 -11 0
-27 14 -31 4 -5 -15 16 -12 16 -12 -3 -11 -12 1 -21 -5 -23 -18 -4 -17 -3 -18
14 -5 13 10 12 6 -3 -11 -17 -18 -20 -28 -12 -36 15 -15 1 -53 -19 -52 -11 0
-12 2 -4 6 6 2 9 10 6 15 -4 7 -2 8 4 4 8 -4 12 0 12 11 0 16 -1 16 -17 1 -9
-9 -17 -27 -18 -40 -1 -13 -5 -30 -9 -39 -4 -9 -6 -22 -4 -30 2 -8 -3 -13 -12
-11 -11 3 -10 -2 4 -17 18 -19 15 -26 -8 -22 -5 1 -4 -5 4 -13 10 -13 10 -16
0 -16 -8 0 -10 -3 -7 -6 9 -9 38 16 31 27 -3 5 3 6 12 2 11 -4 13 -8 6 -11 -7
-2 -9 -9 -6 -14 4 -7 2 -8 -4 -4 -7 4 -12 3 -12 -2 0 -11 35 -44 41 -37 3 2 5
-5 5 -16 0 -18 -2 -18 -12 -5 -15 21 -19 20 -21 -4 -1 -11 1 -19 5 -19 19 3
32 -2 32 -12 0 -5 -4 -7 -10 -4 -5 3 -10 0 -10 -7 -1 -8 -6 -6 -15 6 -8 11
-13 31 -10 47 3 15 1 31 -5 34 -10 6 -13 -10 -13 -73 0 -28 -2 -31 -16 -20
-14 11 -14 11 -5 -2 6 -8 10 -23 9 -33 -2 -10 1 -14 7 -11 7 5 9 -4 6 -24 -2
-18 0 -29 5 -25 5 3 7 0 5 -8 -3 -8 -11 -13 -17 -11 -7 1 -10 -2 -6 -7 3 -6
13 -7 21 -4 14 5 14 3 3 -16 -8 -11 -18 -21 -24 -21 -7 0 -7 -3 0 -8 6 -4 17
-16 25 -26 14 -18 13 -18 -10 -11 -24 8 -24 7 -5 -11 11 -10 27 -27 36 -37 13
-16 18 -17 24 -6 5 8 5 11 0 7 -4 -4 -14 0 -21 10 -17 21 -18 40 -2 24 15 -15
28 -16 28 -2 0 5 -5 9 -12 7 -21 -4 -15 66 7 88 11 11 16 17 11 13 -17 -13
-23 -9 -21 14 1 12 7 24 15 26 8 3 10 0 5 -8 -5 -9 -4 -11 3 -6 9 5 9 13 2 27
-12 21 -4 43 11 34 5 -4 9 -2 9 3 0 6 -6 12 -13 15 -18 7 -15 46 4 59 11 8 10
9 -4 4 -12 -4 -17 -2 -14 6 2 7 10 12 16 10 7 -1 10 2 6 8 -3 6 -11 8 -16 5
-5 -4 -9 2 -9 12 0 15 -2 16 -10 3 -8 -13 -10 -12 -10 3 0 19 11 22 26 7 5 -5
15 -6 24 0 11 7 8 10 -12 15 -21 5 -26 12 -24 31 2 14 8 30 14 36 23 23 11 31
-12 9 -14 -13 -22 -29 -19 -37 6 -17 -13 -19 -23 -2 -4 6 -3 8 3 5 5 -3 10 0
10 8 0 8 -3 12 -7 10 -4 -2 -7 8 -6 23 1 16 6 26 14 25 16 -4 16 14 0 20 -8 4
-9 6 -2 6 6 1 17 -5 23 -13 10 -11 8 -16 -8 -21 -21 -6 -26 -16 -14 -28 3 -4
17 5 30 19 12 14 23 20 23 13 0 -7 3 -9 7 -6 3 4 12 2 19 -4 9 -7 12 -6 10 5
-1 9 -6 19 -11 23 -4 4 -5 2 0 -6 5 -9 4 -12 -3 -8 -17 11 -2 46 16 40 14 -4
14 -3 3 5 -7 5 -11 14 -7 20 3 6 3 12 -1 14 -5 1 2 13 14 24 l21 21 26 -24
c14 -13 26 -20 27 -16 0 4 2 16 4 26 2 10 -1 14 -7 11 -6 -4 -8 -3 -5 3 3 5 0
10 -8 10 -11 0 -12 -4 -4 -14 21 -24 -6 -13 -31 14 -20 21 -21 24 -5 15 17 -9
22 -7 33 11 13 22 13 22 7 -3 -6 -25 -6 -25 11 -5 14 16 16 17 11 3 -4 -10 -2
-18 4 -18 6 0 9 -7 5 -15 -3 -8 3 -22 12 -32 16 -16 16 -17 0 -10 -12 4 -18 2
-18 -8 0 -8 -6 -13 -12 -11 -7 1 -10 1 -5 -1 15 -9 6 -22 -10 -17 -14 5 -15 4
-4 -4 8 -6 10 -15 6 -23 -5 -8 -5 -11 0 -7 8 8 40 -20 32 -28 -3 -4 -12 -2
-19 2 -16 11 -42 15 -33 6 4 -4 10 -7 13 -7 4 -1 17 -6 30 -13 12 -7 22 -9 22
-5 0 4 5 1 11 -7 8 -12 9 -11 7 5 -2 13 2 19 12 17 12 -2 11 1 -2 11 -10 8
-15 17 -11 20 3 4 12 2 19 -4 9 -7 12 -6 9 8 -4 25 6 38 17 22 8 -11 9 -11 5
1 -2 8 -14 21 -28 27 -17 9 -19 13 -7 13 9 0 24 10 33 23 8 12 19 21 22 19 4
-2 9 2 12 9 2 7 -1 9 -8 5 -7 -5 -9 -1 -5 9 5 13 10 11 24 -12 19 -31 9 -46
-25 -37 -11 3 -5 -4 14 -16 24 -15 37 -18 44 -11 6 6 16 11 21 11 6 0 3 -5 -7
-11 -9 -6 -15 -14 -12 -20 4 -5 2 -9 -4 -9 -14 0 -7 -30 10 -42 11 -8 11 -9
-3 -5 -9 3 -19 3 -21 -1 -2 -4 -2 -1 0 6 1 7 -2 10 -7 7 -11 -7 -9 -33 3 -52
5 -7 4 -13 0 -13 -5 0 -15 6 -23 13 -12 10 -12 9 -2 -5 10 -13 10 -17 0 -22
-7 -3 -3 -3 9 -1 12 3 24 1 28 -5 4 -6 1 -9 -7 -8 -7 2 -13 -3 -13 -11 0 -8 6
-15 13 -17 7 -1 8 0 2 3 -5 2 -10 9 -10 14 0 6 10 5 22 -2 20 -11 21 -12 4
-25 -17 -12 -17 -13 2 -11 11 0 18 6 17 12 -10 35 -18 55 -24 55 -4 0 -7 11
-7 25 0 14 4 25 9 25 5 0 7 -7 3 -15 -3 -8 1 -20 8 -27 7 -7 14 -17 15 -23 1
-5 5 -12 8 -15 4 -3 3 1 -1 8 -4 6 -2 12 4 12 7 0 9 8 4 22 -6 21 -5 22 11 8
11 -8 16 -10 12 -4 -4 7 7 11 31 10 36 0 37 0 10 -10 -16 -5 -28 -14 -28 -19
0 -4 4 -5 10 -2 5 3 18 1 27 -5 16 -10 16 -11 -2 -5 -11 3 -17 3 -13 0 9 -9
-25 -43 -37 -37 -5 3 -7 1 -2 -3 12 -13 47 -16 47 -4 0 5 -4 7 -10 4 -6 -3
-10 -2 -10 3 0 11 30 25 38 17 3 -3 1 -5 -5 -5 -11 0 -10 -50 2 -71 4 -8 -2
-4 -14 8 -12 13 -27 23 -34 23 -8 0 -7 -3 2 -9 8 -5 11 -16 8 -25 -3 -8 -2
-18 4 -22 6 -3 3 -12 -8 -21 -10 -8 -12 -11 -4 -7 11 5 13 3 8 -10 -4 -10 -7
-20 -7 -22 0 -3 -4 -3 -9 1 -5 3 -13 1 -16 -5 -4 -6 -3 -9 2 -8 4 2 9 -1 10
-5 1 -5 9 -14 18 -21 15 -11 14 -14 -5 -39 l-22 -27 26 11 c14 7 23 16 20 20
-3 5 2 6 10 3 9 -3 16 -1 16 5 0 6 -5 11 -12 11 -6 0 -8 3 -5 6 8 8 37 -15 37
-29 0 -6 -3 -8 -6 -4 -8 7 -60 -18 -69 -34 -10 -15 28 -7 41 10 9 11 11 11 11
-3 0 -15 -10 -20 -29 -17 -5 0 -8 -5 -8 -13 0 -14 52 -17 66 -4 4 4 -4 5 -17
3 -22 -4 -23 -3 -6 9 10 8 13 16 7 18 -5 1 2 16 17 32 18 19 21 28 10 23 -11
-4 -20 1 -28 16 -11 19 -10 20 3 10 15 -13 28 -8 28 11 0 6 -5 4 -10 -4 -8
-12 -10 -11 -10 7 0 12 -4 25 -10 28 -14 9 -12 27 3 22 6 -2 12 -9 12 -15 0
-7 3 -12 8 -12 10 0 10 2 -4 32 -9 21 -15 25 -25 17 -10 -8 -18 -7 -29 5 -9 9
-12 16 -6 16 5 0 13 -5 16 -10 4 -6 12 -7 18 -3 20 12 36 12 31 -1 -3 -7 2
-19 11 -26 10 -8 15 -9 15 -1 0 6 -4 11 -10 11 -5 0 -10 5 -10 11 0 5 4 8 9 5
5 -3 14 1 21 9 9 10 9 15 1 15 -6 0 -11 -5 -11 -11 0 -5 -5 -7 -11 -4 -7 5 -5
13 5 24 9 10 16 22 16 27 0 5 -4 3 -9 -5 -7 -10 -12 -11 -27 -1 -16 10 -16 11
-1 6 11 -3 17 0 17 10 0 8 4 12 10 9 6 -3 7 1 4 10 -5 12 -9 13 -20 4 -8 -6
-14 -8 -14 -3 0 5 -7 0 -15 -10 -8 -11 -15 -15 -15 -9 0 13 19 27 35 28 6 1 9
7 7 15 -2 10 3 8 19 -5 l23 -20 -17 27 c-15 24 -15 27 -1 39 14 12 14 14 0 25
-15 11 -15 12 0 18 9 4 14 12 10 21 -4 12 -2 13 13 5 16 -8 19 -7 16 8 -2 9
-4 21 -4 26 -1 5 -7 3 -15 -3 -11 -9 -16 -9 -22 0 -4 7 -3 9 4 5 6 -3 13 -2
17 4 4 6 11 7 17 4 7 -5 9 -1 5 9 -3 9 -1 19 5 23 6 4 8 3 4 -4 -3 -6 -1 -14
5 -18 8 -4 9 -3 5 4 -4 7 -2 12 4 12 6 0 -2 12 -17 26 -15 15 -20 21 -11 14
15 -10 19 -9 24 4 3 9 10 13 16 10 5 -3 1 -12 -9 -21 -17 -13 -16 -13 4 -4 15
8 20 17 16 32 -5 17 -3 20 7 14 9 -5 11 -4 6 4 -6 9 -11 9 -22 0 -8 -6 -17 -9
-21 -5 -3 3 -1 6 5 6 7 0 12 5 12 11 0 5 -5 7 -12 3 -7 -4 -8 -3 -4 5 4 6 12
8 18 5 7 -5 9 -1 5 9 -4 12 -2 14 10 10 11 -5 14 -3 8 6 -4 8 3 6 18 -4 17
-11 27 -13 32 -5 3 6 3 10 -2 9 -18 -3 -33 2 -33 10 0 6 10 8 21 6 20 -4 20
-3 5 14 -9 10 -13 20 -10 24 4 3 15 -4 25 -16 14 -18 20 -20 31 -9 7 7 9 13 3
12 -22 -5 -35 1 -35 15 0 8 3 15 8 16 4 0 18 2 32 5 18 3 21 2 10 -5 -8 -5
-17 -8 -21 -5 -4 2 -10 0 -13 -5 -3 -5 5 -12 19 -15 24 -6 25 -7 9 -31 -9 -14
-20 -22 -25 -19 -5 3 -6 -2 -2 -11 3 -10 8 -13 12 -6 4 5 12 7 19 2 11 -7 10
-40 -3 -61 -3 -6 0 -10 7 -10 9 0 9 -3 -2 -10 -13 -9 -13 -11 0 -20 20 -13 4
-13 -22 1 -16 9 -19 8 -13 -1 5 -8 -1 -20 -16 -32 -22 -17 -22 -18 -2 -9 17 9
25 7 37 -5 22 -21 20 -27 -5 -14 -11 7 -23 9 -27 6 -3 -3 -1 -6 5 -6 12 0 11
-60 -1 -79 -7 -10 -6 -12 4 -6 8 5 11 3 8 -6 -3 -8 -10 -14 -16 -14 -5 0 -14
-4 -19 -8 -4 -5 -3 -7 4 -5 6 2 11 0 12 -4 3 -22 0 -28 -11 -22 -7 4 -8 3 -4
-4 4 -6 13 -9 21 -5 11 4 13 1 9 -11 -4 -11 -1 -16 10 -16 21 0 20 -16 -1 -32
-21 -15 -29 -48 -13 -48 6 0 9 4 6 9 -9 13 20 21 32 9 8 -8 10 0 7 25 -1 20 0
36 4 35 19 -2 22 4 10 19 -12 14 -12 16 1 11 12 -4 15 3 14 35 0 30 -6 43 -20
48 -18 7 -18 8 1 8 15 1 17 3 7 10 -11 6 -9 10 7 14 18 4 19 2 10 -14 -6 -13
-6 -19 1 -19 5 0 10 7 10 15 0 8 5 15 10 15 6 0 10 5 10 11 0 5 -4 8 -9 5 -5
-3 -11 6 -14 19 -5 26 7 43 18 25 10 -16 28 -12 21 5 -10 27 27 36 54 13 14
-11 19 -17 13 -13 -23 11 -54 14 -47 4 9 -15 -15 -38 -34 -33 -13 4 -13 3 2
-6 14 -10 20 -10 26 0 6 9 9 9 13 -1 4 -10 6 -8 4 3 -1 9 3 17 8 17 6 0 8 -8
7 -17 -3 -14 -2 -14 15 -1 16 12 17 12 6 -2 -7 -9 -9 -20 -5 -25 4 -4 -1 -2
-10 5 -12 9 -18 10 -18 2 0 -6 -3 -10 -7 -10 -19 3 -33 -2 -33 -12 0 -6 5 -7
13 -2 21 13 36 12 49 -5 10 -12 10 -14 1 -8 -19 11 -16 -5 5 -21 15 -13 15
-13 -5 -3 -27 13 -32 -4 -5 -19 11 -7 12 -10 3 -11 -8 0 -11 -6 -7 -16 3 -9 2
-12 -5 -9 -6 4 -8 13 -5 21 3 8 1 14 -4 14 -6 0 -10 -5 -10 -11 0 -7 -8 -18
-17 -26 -16 -13 -15 -13 6 -2 21 10 23 9 18 -5 -5 -11 -3 -15 4 -10 7 4 10 1
7 -7 -3 -8 -12 -13 -19 -11 -11 3 -11 1 -2 -9 10 -10 15 -9 28 1 8 7 18 10 22
6 3 -3 1 -6 -7 -6 -10 0 -10 -4 1 -17 12 -16 12 -17 -2 -6 -16 13 -29 8 -29
-9 0 -5 5 -6 12 -2 7 5 8 3 3 -6 -6 -10 -3 -12 13 -8 13 4 20 2 16 -4 -3 -5
-15 -8 -25 -5 -10 3 -22 1 -25 -4 -5 -9 10 -13 31 -9 6 1 5 -4 -1 -10 -9 -9
-18 -9 -35 0 -22 10 -22 10 -6 -3 22 -18 22 -24 0 -30 -17 -4 -17 -5 -1 -6 14
-1 16 -5 8 -26 -7 -18 -6 -23 4 -19 7 3 12 16 10 30 -1 17 4 27 19 35 19 8 20
8 7 -3 -19 -17 -25 -48 -8 -48 8 0 5 -5 -5 -11 -15 -9 -16 -13 -5 -27 10 -12
10 -14 1 -8 -7 4 -13 2 -13 -3 0 -20 -3 -26 -19 -39 -14 -11 -14 -11 2 -6 13
5 16 2 11 -10 -3 -9 0 -24 7 -33 11 -12 11 -17 2 -20 -7 -2 -9 -11 -6 -19 3
-7 10 -11 17 -7 6 3 3 -3 -7 -14 -9 -11 -14 -22 -11 -26 4 -3 8 -18 10 -32 2
-21 -1 -25 -13 -21 -12 5 -13 4 -5 -7 7 -8 9 -17 5 -20 -3 -4 5 -15 18 -26 13
-11 19 -20 13 -21 -5 0 -17 6 -24 12 -12 11 -13 11 -3 -1 6 -7 10 -19 9 -25
-2 -6 -1 -8 1 -3 3 4 9 7 14 7 13 0 7 -23 -9 -35 -7 -6 -10 -18 -6 -28 7 -19
24 -23 24 -5 0 6 3 8 7 4 12 -11 12 -40 1 -53 -6 -8 -9 -16 -6 -19 3 -2 13 7
22 21 15 22 15 29 4 43 -11 14 -11 15 5 9 10 -4 16 -3 12 2 -3 5 1 12 7 15 7
3 4 4 -7 1 -16 -4 -21 0 -21 15 0 22 12 27 19 8 4 -10 6 -10 6 0 1 8 6 10 14
6 7 -4 9 -3 4 2 -5 5 -13 10 -18 10 -5 1 -13 2 -19 3 -5 0 -10 6 -10 12 0 5 4
8 9 5 19 -12 19 24 0 48 -11 14 -17 31 -14 36 8 13 -14 42 -25 35 -5 -3 -12 0
-16 6 -5 8 -3 9 6 4 9 -6 11 -4 5 6 -8 12 -6 12 8 0 14 -11 20 -11 32 -1 8 7
12 16 9 21 -3 5 2 12 11 15 10 4 13 13 9 26 -4 15 -3 18 6 13 9 -5 11 -4 6 4
-6 9 -11 9 -22 0 -12 -10 -13 -9 -8 6 6 14 4 16 -7 10 -12 -8 -12 -6 -1 8 8 9
11 20 8 25 -3 5 1 9 9 9 11 0 12 -5 3 -21 -6 -12 -7 -18 -3 -14 4 4 17 3 29
-3 21 -10 21 -10 1 6 -17 14 -18 17 -5 25 12 8 12 10 1 10 -11 0 -11 3 -1 16
11 12 11 15 0 12 -7 -2 -15 3 -18 11 -2 8 0 11 6 7 6 -3 9 1 8 11 -2 10 2 21
8 25 7 5 4 8 -8 8 -12 0 -16 -5 -13 -14 3 -8 -1 -17 -9 -20 -9 -3 -12 -2 -9 5
4 6 -1 20 -11 32 -10 12 -12 16 -4 10 16 -14 34 -18 26 -5 -2 4 0 14 6 22 8
12 9 12 4 -3 -3 -11 -2 -16 4 -12 6 3 8 16 4 29 -3 12 -6 29 -7 37 -2 8 -6 19
-9 24 -4 6 3 17 15 25 20 12 21 12 8 -4 -8 -9 -11 -19 -8 -22 3 -3 10 4 17 15
6 12 7 21 3 21 -4 0 -1 5 7 10 12 7 10 9 -8 7 -12 0 -22 -5 -22 -9 0 -4 -4 -8
-10 -8 -21 0 -9 18 20 30 26 11 29 16 25 42 -4 20 -2 27 6 23 8 -6 8 -2 0 13
-7 14 -8 23 -1 27 5 3 10 1 10 -6 0 -7 3 -10 6 -7 3 4 -2 20 -10 37 -19 36
-20 41 -4 41 6 0 8 -3 5 -7 -9 -8 12 -33 27 -33 6 0 4 6 -4 13 -17 13 -19 25
-6 45 5 8 4 18 -3 25 -9 9 -11 8 -6 -4 4 -10 2 -20 -3 -23 -5 -3 -8 5 -8 17 1
12 -3 28 -8 36 -8 11 -8 13 1 8 13 -8 45 31 37 45 -3 4 2 5 11 2 11 -5 14 -2
9 9 -3 9 -12 13 -21 10 -11 -4 -14 -2 -9 5 10 17 27 15 40 -4 10 -13 12 -13
12 5 0 11 -4 17 -8 15 -4 -3 -8 0 -8 6 0 6 -5 8 -12 4 -7 -4 -8 -3 -4 5 4 6
11 9 16 6 4 -3 10 2 13 9 4 10 0 13 -14 11 -11 -2 -17 0 -14 6 4 5 11 7 16 4
8 -6 13 9 10 28 -1 5 3 6 9 2 5 -3 10 1 10 9 0 9 5 16 11 16 7 0 5 -10 -5 -25
-9 -14 -12 -25 -7 -25 5 0 12 8 15 18 3 9 23 30 43 47 l38 30 -23 -29 c-17
-22 -19 -32 -11 -42 14 -17 -2 -18 -20 -1 -11 9 -12 9 -7 0 4 -7 16 -18 28
-24 11 -6 18 -7 15 -2 -4 5 0 10 8 10 11 0 12 -4 4 -13 -6 -8 -14 -13 -17 -12
-20 2 -23 -4 -11 -18 16 -20 21 -44 8 -44 -6 0 -7 -5 -4 -10 4 -6 12 -5 21 4
17 17 19 30 2 20 -7 -5 -8 -3 -3 6 4 7 2 15 -5 20 -8 5 -7 9 6 14 10 4 15 4
12 0 -4 -4 -3 -15 3 -26 7 -13 7 -23 1 -31 -14 -17 -18 -50 -8 -66 6 -9 5 -12
-2 -7 -6 3 -13 2 -17 -4 -4 -6 -11 -7 -17 -4 -7 4 -8 2 -4 -5 6 -9 11 -9 21
-1 9 7 16 6 25 -5 7 -8 17 -12 22 -9 6 4 4 -4 -3 -17 -8 -13 -14 -43 -14 -66
0 -30 -6 -47 -20 -58 -14 -12 -16 -18 -7 -21 24 -11 33 -41 15 -55 -12 -10
-15 -10 -9 -1 4 6 2 12 -3 12 -6 0 -11 -5 -11 -11 0 -5 -4 -8 -9 -4 -5 3 -13
0 -16 -5 -10 -15 24 -50 41 -43 21 8 17 21 -8 19 -11 0 -23 4 -25 10 -2 6 3
11 12 11 8 0 15 -4 15 -9 0 -5 4 -7 9 -3 5 3 13 0 17 -6 9 -14 -25 -41 -43
-35 -7 3 -15 1 -18 -4 -3 -4 6 -7 19 -6 15 2 23 -1 20 -9 -3 -6 2 -17 10 -24
13 -11 15 -8 13 16 -1 18 3 27 11 26 14 -3 16 33 2 42 -5 3 -10 12 -10 18 0 7
9 -1 20 -18 13 -20 16 -33 9 -41 -15 -19 5 -25 27 -9 18 15 18 15 -1 8 -11 -3
-17 -3 -13 2 4 4 1 22 -6 40 -14 33 -7 55 18 55 6 0 4 -5 -4 -10 -8 -5 -10
-10 -5 -10 6 0 17 5 25 10 11 7 11 10 2 10 -7 0 -11 4 -7 9 3 6 -4 8 -16 6
-23 -5 -21 0 26 55 12 14 20 31 19 38 -1 6 -2 16 -3 22 0 5 -9 7 -18 4 -15 -5
-16 -4 -3 5 8 6 23 11 32 11 9 0 19 4 22 9 3 5 -2 8 -12 7 -9 0 -16 5 -15 12
2 6 -3 12 -10 12 -6 1 -1 7 13 15 14 8 21 15 15 15 -5 0 -1 7 9 15 17 13 18
15 3 15 -16 0 -16 1 1 18 16 16 18 16 40 -9 30 -37 28 -47 -3 -12 -13 15 -25
23 -25 17 0 -6 7 -17 15 -24 13 -11 13 -15 0 -33 -20 -28 -19 -33 8 -34 12 0
16 1 10 4 -16 6 -17 33 -2 33 5 0 8 -4 5 -9 -4 -5 6 -19 21 -31 21 -16 23 -19
6 -10 -19 9 -23 8 -23 -5 0 -8 -5 -15 -12 -15 -6 0 -8 -3 -5 -6 4 -4 13 -1 22
6 18 15 20 -1 3 -18 -9 -9 -9 -12 3 -13 7 -1 17 -1 22 0 4 0 7 -4 7 -10 0 -6
-6 -9 -14 -6 -8 3 -20 -1 -27 -9 -10 -12 -10 -15 2 -12 8 2 13 -2 12 -9 -2 -7
4 -10 12 -7 20 8 11 -37 -11 -53 -15 -11 -14 -12 4 -10 11 0 19 4 16 8 -2 4 4
13 13 20 12 10 14 10 9 2 -5 -9 -1 -13 11 -14 16 0 15 -1 -2 -9 -12 -4 -26
-15 -33 -23 -11 -13 -10 -15 7 -10 13 3 21 1 21 -6 0 -7 -4 -10 -8 -7 -5 3 -9
-2 -9 -10 0 -9 6 -13 14 -10 8 3 11 2 8 -3 -3 -5 -1 -12 5 -16 6 -4 8 -11 5
-16 -4 -5 -1 -9 4 -9 14 0 11 -50 -3 -69 -9 -12 -8 -13 3 -6 11 6 13 4 8 -8
-6 -16 3 -22 26 -18 5 1 6 -3 2 -9 -3 -5 -1 -10 4 -10 6 0 11 -5 11 -11 0 -5
-10 -3 -22 5 -12 9 -27 16 -33 16 -5 0 -2 -5 7 -11 10 -5 15 -16 12 -24 -4 -8
-1 -15 6 -15 6 0 8 5 4 12 -5 7 -3 8 5 3 9 -5 10 -10 2 -18 -13 -13 -15 -30
-2 -23 5 3 11 -1 14 -8 7 -17 -16 -39 -28 -28 -4 4 0 -5 10 -21 20 -31 22 -32
22 -12 0 8 -4 15 -9 15 -5 0 -6 5 -2 12 5 8 11 6 20 -7 16 -21 -3 -60 -21 -45
-8 7 -12 5 -12 -5 0 -7 5 -13 11 -12 6 1 10 -4 9 -10 -2 -7 3 -12 10 -10 6 1
11 -4 10 -11 -2 -6 2 -12 7 -12 14 0 13 13 -2 28 -8 8 -8 12 -1 12 6 0 13 -6
16 -12 7 -20 -4 -78 -16 -78 -6 0 -7 -3 -4 -6 4 -4 13 -1 22 6 12 10 15 10 15
0 0 -9 4 -9 17 1 15 12 16 12 8 -1 -13 -21 -15 -39 -4 -46 11 -6 2 -24 -12
-24 -5 0 -7 11 -5 25 3 17 1 23 -6 19 -7 -5 -8 -2 -3 7 7 12 6 12 -6 0 -10
-10 -11 -15 -2 -18 7 -2 10 -10 7 -18 -3 -8 6 -20 23 -29 15 -8 23 -15 17 -16
-5 0 -19 -7 -30 -16 -10 -8 -13 -12 -5 -8 21 11 71 12 65 2 -4 -5 -12 -7 -20
-4 -7 3 -16 1 -19 -3 -3 -5 8 -8 24 -7 17 1 28 -2 25 -6 -3 -4 -14 -8 -25 -8
-10 0 -19 -4 -19 -9 0 -4 11 -7 26 -5 20 2 23 0 14 -11 -8 -10 -8 -15 0 -20 6
-4 9 -13 6 -21 -3 -7 -1 -16 4 -19 4 -3 11 1 13 7 4 9 6 10 6 1 1 -6 -3 -15
-9 -18 -6 -3 -10 -12 -10 -18 0 -7 4 -6 10 3 8 13 10 12 10 -2 0 -10 -6 -18
-12 -18 -10 0 -9 -3 1 -9 11 -7 11 -10 0 -14 -8 -4 -5 -5 6 -4 11 1 19 -3 18
-10 -2 -8 4 -10 14 -6 12 5 14 3 7 -8 -12 -20 -14 -39 -3 -39 5 0 9 5 9 11 0
5 5 7 10 4 6 -4 7 -11 4 -17 -4 -7 0 -7 13 1 14 7 23 7 30 0 8 -8 13 -7 18 2
5 7 4 10 -2 6 -6 -4 -14 0 -17 9 -5 13 -9 14 -21 4 -13 -11 -14 -10 -9 4 4 10
12 15 19 12 8 -3 17 3 21 12 10 24 14 45 6 37 -4 -4 -7 -12 -7 -17 0 -6 -6
-13 -13 -16 -7 -2 -10 2 -6 12 5 12 2 15 -12 10 -11 -3 -15 -2 -8 3 6 4 11 28
11 52 0 25 -3 38 -7 31 -5 -7 -6 -20 -3 -29 4 -14 3 -14 -6 -1 -7 11 -6 21 5
39 9 13 11 21 6 17 -6 -3 -14 4 -18 16 -12 36 -13 49 -3 42 5 -3 7 -9 4 -14
-3 -4 3 -14 13 -21 15 -13 16 -12 3 4 -7 9 -10 17 -6 17 4 0 2 7 -5 15 -7 9
-20 13 -29 10 -11 -3 -10 0 3 10 16 12 22 12 28 2 6 -9 8 -9 8 0 0 6 -5 15
-10 18 -6 4 -7 11 -4 17 5 7 2 8 -5 4 -8 -5 -12 -3 -10 5 4 35 -2 60 -13 53
-8 -5 -9 -2 -5 9 3 9 1 19 -5 23 -6 4 -8 3 -4 -4 3 -6 2 -13 -3 -17 -10 -6 -8
16 4 48 6 13 2 17 -16 18 -22 0 -23 1 -4 8 11 5 27 6 35 4 13 -4 13 -4 0 6
-20 14 -20 31 -1 56 9 11 10 15 2 8 -14 -12 -41 -7 -41 9 0 5 4 6 10 3 10 -6
3 21 -10 40 -12 16 -10 75 2 75 6 0 8 3 5 6 -4 4 -13 1 -22 -6 -8 -7 -15 -9
-16 -4 0 5 -2 17 -4 26 -3 15 0 16 18 7 18 -9 20 -9 10 1 -6 7 -9 19 -6 26 3
8 0 14 -6 14 -6 0 -11 7 -11 15 0 8 -5 15 -12 15 -6 0 -8 3 -5 6 4 4 12 2 20
-4 10 -8 13 -6 14 11 2 15 0 18 -6 9 -7 -11 -11 -11 -23 2 -9 8 -18 13 -22 11
-3 -3 -2 1 4 7 14 17 12 31 -2 21 -7 -4 -5 6 6 21 10 16 13 25 7 22 -17 -11
-13 10 5 28 18 19 4 22 -15 4 -11 -11 -13 -10 -7 5 3 10 6 21 6 23 0 3 5 2 11
-2 8 -4 8 -1 2 12 -11 22 -11 34 0 52 5 7 2 15 -8 18 -13 6 -14 8 -3 15 9 6 9
9 1 9 -19 0 -26 -20 -9 -26 9 -3 13 -11 9 -18 -4 -6 -8 -20 -8 -30 0 -11 -6
-20 -13 -22 -7 -1 -8 0 -2 3 6 3 3 12 -8 21 -9 10 -13 14 -8 9 16 -12 22 -8
23 13 1 13 -2 18 -9 14 -7 -4 -8 -2 -4 4 4 7 2 12 -4 12 -7 0 -5 6 4 15 9 9
12 23 9 33 -6 15 -5 16 13 2 18 -14 18 -14 5 3 -11 14 -11 20 0 34 8 9 9 14 2
10 -13 -8 -56 41 -47 54 3 5 9 7 14 4 5 -3 11 -1 14 4 4 6 -8 8 -26 6 -18 -2
-27 -1 -20 2 6 2 10 8 7 13 -2 4 9 6 25 5 16 -1 27 1 24 6 -3 5 -9 7 -14 4 -5
-3 -15 1 -23 9 -8 8 -17 13 -19 11 -3 -3 -5 2 -5 10 0 8 4 15 9 15 4 0 8 9 8
21 0 11 4 18 8 15 5 -3 9 1 9 9 0 8 -4 15 -9 15 -9 0 -6 22 4 30 4 3 -3 12
-15 19 -20 13 -21 13 -8 -2 11 -14 11 -17 0 -17 -9 0 -10 -3 -4 -8 15 -11 18
-42 4 -42 -7 0 -9 3 -6 7 4 3 0 17 -9 31 -9 13 -11 21 -4 17 7 -4 11 -1 9 6
-1 8 -1 23 0 34 1 19 3 18 22 -5 l21 -25 -15 26 c-12 19 -13 29 -5 37 9 9 5
10 -11 7 -23 -4 -23 -4 -5 17 11 12 13 18 7 14 -7 -4 -13 -3 -13 3 0 5 6 12
13 15 6 3 1 3 -13 0 -20 -5 -23 -4 -12 7 6 7 12 18 12 23 -1 6 -9 1 -20 -12
-17 -21 -19 -21 -17 -3 0 11 5 17 9 15 4 -3 8 2 8 10 0 9 -5 16 -12 16 -6 0
-9 3 -6 6 4 3 15 1 27 -5 14 -8 22 -8 27 1 4 6 3 9 -2 6 -5 -3 -15 0 -22 8 -7
8 -10 14 -6 14 4 0 -1 10 -12 23 l-19 22 22 -18 c15 -13 23 -15 28 -7 4 6 13
9 21 6 9 -3 14 1 14 13 0 10 7 22 16 25 8 3 12 2 9 -4 -3 -6 -1 -10 5 -10 6 0
8 -5 4 -12 -4 -7 -3 -8 5 -4 6 4 19 2 27 -5 12 -10 15 -10 12 2 -2 8 3 13 10
11 6 -1 12 2 12 8 0 13 -13 13 -25 1 -6 -6 -15 -4 -22 4 -10 10 -5 13 25 11
27 -1 36 -5 34 -16 -3 -12 -1 -13 9 -2 18 17 29 15 23 -5 -5 -15 -4 -15 6 1
10 15 14 16 22 5 8 -11 9 -11 5 1 -2 8 2 21 10 29 13 12 14 11 8 -8 -6 -20 -5
-21 13 -10 12 7 18 18 15 24 -4 5 -3 7 2 3 4 -4 13 -3 20 2 8 7 12 5 12 -5 0
-8 -4 -12 -8 -10 -3 3 -12 -2 -18 -9 -9 -11 -9 -16 0 -22 7 -4 9 -3 6 2 -3 5
10 14 29 20 38 12 46 3 12 -13 -21 -10 -20 -10 9 -8 18 1 39 7 46 13 8 7 17 9
20 5 10 -10 8 -43 -2 -43 -5 0 -7 10 -3 22 3 14 2 19 -7 14 -6 -4 -9 -12 -6
-17 4 -5 -2 -9 -12 -10 -14 0 -12 -3 7 -11 14 -6 28 -10 33 -10 4 1 7 -3 7 -9
0 -6 -6 -9 -13 -6 -8 3 -20 1 -28 -4 -11 -7 -11 -9 -1 -9 9 0 12 -10 10 -27
-2 -18 2 -27 10 -25 6 1 11 -3 10 -10 -2 -6 6 -14 17 -16 16 -4 17 -2 7 10 -9
12 -9 15 3 15 8 0 12 -4 9 -9 -3 -4 -1 -8 4 -8 6 0 12 7 16 15 3 8 9 15 13 14
4 -1 19 2 31 6 18 6 21 10 10 17 -10 8 -10 9 2 5 8 -2 14 -13 13 -23 -1 -10 0
-13 3 -6 3 6 10 9 16 6 5 -4 4 4 -3 17 -11 22 -11 23 4 10 11 -9 17 -10 17 -2
0 7 10 9 26 7 15 -3 24 -2 20 1 -6 7 -29 13 -53 15 -7 1 -10 5 -7 10 3 5 10 6
15 2 18 -11 69 -13 69 -3 0 6 -4 8 -8 5 -5 -3 -9 1 -9 9 0 8 5 11 10 8 14 -9
60 -13 52 -5 -3 4 -14 7 -22 7 -9 0 -17 6 -19 13 -1 7 0 8 3 2 7 -16 21 -12
26 7 4 15 5 16 6 2 0 -9 10 -19 22 -22 12 -3 18 -10 15 -16 -4 -5 -2 -12 3
-15 8 -5 8 15 1 34 -1 3 -2 8 -1 13 0 4 -4 6 -10 5 -6 -2 -13 3 -14 10 -2 7
-1 8 2 2 3 -7 10 -4 19 7 11 14 13 14 9 2 -3 -9 2 -25 12 -35 10 -11 15 -15
11 -9 -14 22 6 26 22 5 15 -20 16 -20 16 -1 0 11 -3 19 -6 18 -3 -1 -5 3 -5 8
0 6 3 9 7 8 9 -3 4 25 -7 34 -4 4 -5 3 -2 -3 3 -6 -3 -18 -14 -27 -28 -25 -33
-21 -10 9 11 14 17 33 14 42 -3 11 -2 13 4 6 4 -6 19 -17 33 -24 l25 -12 -23
21 c-19 19 -22 41 -6 41 3 0 3 -4 0 -9 -3 -5 1 -12 10 -15 8 -3 12 -2 9 4 -3
6 -1 10 4 10 6 0 11 5 11 11 0 5 -6 7 -12 3 -8 -4 -10 -3 -5 2 5 5 14 9 20 9
7 0 11 11 10 25 -1 14 0 18 3 9 3 -10 14 -19 25 -22 15 -4 19 -2 15 9 -5 13 6
19 27 15 5 -1 6 3 3 8 -4 5 -15 8 -26 6 -12 -2 -18 0 -14 6 3 6 8 8 11 5 10
-10 44 15 37 27 -4 7 -4 9 1 5 12 -11 36 12 28 26 -4 6 1 5 10 -3 9 -7 17 -10
17 -6 0 4 8 1 17 -6 12 -10 14 -10 9 -1 -4 7 -1 15 10 19 14 5 13 8 -7 19 -13
7 -18 13 -11 14 7 0 10 4 7 10 -3 6 1 7 9 4 19 -7 20 -1 5 29 -10 21 -10 21 5
3 9 -11 16 -17 16 -13 0 4 9 3 20 -3 12 -6 19 -7 18 -1 -2 5 6 17 17 26 11 9
14 14 8 10 -7 -3 -13 -1 -13 5 0 6 -5 8 -10 5 -6 -4 -8 -10 -5 -15 10 -16 -13
-20 -26 -4 -7 8 -8 14 -3 12 14 -4 55 28 46 37 -4 5 -1 5 6 1 7 -4 10 -12 7
-17 -3 -5 1 -6 10 -3 12 5 13 10 6 17 -14 14 -14 27 0 27 5 0 7 -5 4 -10 -4
-6 3 -8 17 -6 13 2 22 9 20 15 -1 7 3 22 10 34 12 22 15 30 21 64 2 9 9 19 15
21 7 2 9 9 6 14 -4 7 -2 8 5 4 6 -4 9 -11 6 -16 -7 -11 22 -7 32 5 4 4 2 5 -6
0 -9 -5 -12 -3 -9 6 3 8 11 13 18 11 10 -2 10 1 -1 14 -13 16 -12 17 6 11 17
-6 18 -5 5 6 -8 7 -21 19 -28 27 -11 13 -12 12 -6 -4 6 -15 4 -17 -6 -11 -8 5
-11 4 -7 -2 10 -17 -24 -25 -41 -11 -11 9 -14 9 -9 1 4 -6 3 -14 -2 -18 -6 -3
-8 -18 -6 -33 3 -25 0 -28 -23 -28 -20 1 -27 -4 -26 -17 2 -14 -1 -15 -12 -6
-13 10 -18 6 -15 -13 1 -11 -30 -2 -38 11 -6 10 -10 9 -14 -4 -4 -9 -3 -13 3
-10 5 3 8 -4 7 -16 l-1 -21 -17 21 c-16 20 -16 20 -16 -4 0 -15 4 -22 11 -18
6 3 7 2 3 -2 -4 -5 -13 -10 -20 -11 -7 -1 -21 -6 -31 -10 -15 -6 -17 -4 -11 7
9 14 9 14 -35 -19 -3 -2 4 -2 14 0 10 1 21 -3 23 -10 3 -7 -1 -10 -11 -6 -11
4 -14 0 -11 -15 2 -12 0 -19 -6 -16 -5 4 -7 10 -4 15 3 5 0 12 -6 16 -8 5 -10
-1 -7 -20 4 -21 3 -24 -8 -15 -7 5 -11 19 -9 30 2 11 0 17 -6 14 -5 -4 -7 -10
-4 -15 3 -5 -3 -13 -12 -19 -15 -8 -16 -12 -4 -23 10 -9 12 -9 7 -1 -5 9 -2
11 8 7 23 -9 19 -24 -4 -19 -26 5 -50 -4 -50 -17 0 -6 6 -5 15 2 9 7 15 8 15
2 0 -11 -29 -26 -47 -23 -6 1 -21 -11 -32 -25 -12 -15 -21 -21 -21 -14 0 6 10
20 22 30 l22 17 -21 12 c-16 8 -24 8 -29 -1 -4 -6 -3 -8 2 -5 6 3 16 1 24 -4
12 -7 11 -10 -7 -15 -13 -4 -23 -10 -23 -15 0 -5 -8 -5 -17 -2 -16 6 -16 5 -4
-10 7 -9 9 -17 4 -17 -6 0 -15 10 -21 23 -7 14 -11 16 -11 7 -1 -13 -2 -13
-12 0 -9 13 -10 13 -6 0 2 -8 9 -14 14 -13 5 1 10 -4 10 -11 0 -8 -13 -11 -39
-9 -22 2 -37 -1 -34 -5 2 -4 0 -14 -5 -22 -6 -11 -8 -5 -4 18 3 19 1 32 -5 32
-6 0 -8 -4 -5 -10 3 -5 2 -10 -4 -10 -6 0 -8 -6 -5 -14 3 -8 1 -17 -5 -21 -7
-4 -8 0 -4 11 4 12 3 15 -6 10 -6 -4 -11 -4 -10 1 5 27 -2 45 -15 40 -20 -8
-33 32 -15 45 11 7 9 8 -4 4 -13 -4 -20 0 -24 14 -4 14 -9 17 -17 11 -8 -6
-17 -6 -26 1 -12 8 -11 9 3 4 12 -4 17 -2 14 6 -2 7 0 22 6 33 5 11 6 17 2 13
-10 -10 -37 11 -30 23 3 4 -3 13 -14 19 -29 15 -36 -5 -9 -24 18 -13 19 -16 5
-16 -9 0 -17 5 -17 11 0 5 -5 7 -12 3 -7 -5 -8 -3 -3 6 6 10 3 12 -13 8 -12
-4 -25 -1 -29 4 -3 7 -1 8 5 4 7 -4 12 -3 12 3 0 6 7 8 15 5 11 -5 13 -2 9 10
-5 12 -2 15 12 10 16 -5 16 -4 4 5 -11 7 -21 6 -37 -5 -29 -18 -30 -11 -2 15
19 18 19 19 3 16 -11 -2 -20 -4 -21 -5 -2 -2 -9 -3 -15 -4 -7 -1 -11 -8 -10
-16 2 -8 0 -12 -4 -7 -4 4 -8 16 -9 27 -1 15 2 17 15 10 17 -9 30 -4 30 11 0
5 -8 6 -17 2 -15 -5 -16 -3 -5 8 16 18 15 26 -4 33 -15 6 -15 4 -3 -11 12 -16
12 -17 -2 -6 -9 7 -18 11 -21 8 -2 -3 -5 2 -5 10 0 8 4 12 9 9 4 -3 8 0 8 5 0
15 -28 14 -33 -1 -2 -7 -2 -2 0 10 3 17 0 21 -8 16 -7 -4 -9 -3 -6 4 9 13 -2
44 -13 37 -4 -3 -14 5 -22 18 -19 28 -30 59 -20 53 4 -3 14 4 21 16 10 16 10
18 0 12 -9 -5 -10 -2 -6 10 4 9 3 14 -2 11 -16 -9 -24 15 -10 31 8 9 8 14 1
12 -6 -2 -18 6 -26 17 -15 19 -16 19 -9 1 4 -13 3 -17 -5 -12 -7 4 -12 13 -12
20 0 7 -10 25 -21 40 -17 21 -19 30 -10 39 9 9 11 7 5 -8 -7 -21 -6 -20 13 6
10 12 8 15 -12 15 -14 0 -25 -4 -25 -10 0 -5 -2 -7 -5 -4 -13 13 8 36 28 32
20 -4 20 -4 -1 6 -13 5 -27 8 -31 6 -15 -10 -9 40 7 58 12 14 13 17 2 11 -22
-14 -52 -17 -45 -5 3 5 14 10 23 11 10 0 12 3 5 5 -7 3 -22 0 -34 -6 -17 -10
-20 -10 -13 2 5 7 9 19 11 27 1 8 8 18 15 22 7 5 8 9 3 9 -6 0 -16 -5 -23 -12
-13 -13 -13 -14 -15 51 -2 28 -6 35 -24 36 -13 1 -26 5 -30 10 -5 4 0 5 9 2
10 -3 20 -1 24 5 4 7 3 8 -4 4 -7 -4 -12 -2 -12 3 0 6 5 11 12 11 6 0 8 3 5 6
-4 4 -13 1 -22 -6 -11 -9 -15 -9 -15 -1 0 7 -5 9 -12 5 -7 -4 -10 -3 -5 1 4 5
-1 17 -10 28 -10 11 -12 17 -5 13 7 -4 12 -1 12 9 0 9 5 13 10 10 6 -4 7 -11
4 -17 -4 -6 2 -6 15 1 26 14 27 19 4 17 -12 -1 -17 6 -16 19 1 17 0 18 -10 5
-7 -8 -19 -21 -28 -27 -13 -10 -16 -10 -16 2 0 8 4 12 9 9 9 -6 32 46 23 54
-3 3 -5 0 -5 -7 0 -7 -4 -9 -10 -6 -6 3 -7 -1 -4 -12 5 -17 5 -17 -6 0 -6 10
-16 14 -23 10 -7 -4 -5 2 3 13 22 30 24 30 16 9 -5 -15 -4 -17 5 -8 15 15 2
38 -15 24 -9 -8 -13 -7 -13 4 0 8 4 15 9 15 10 0 6 39 -5 58 -12 17 22 28 35
11 8 -11 9 -10 4 4 -3 10 -6 21 -6 23 0 3 -10 -1 -22 -8 -13 -6 -32 -13 -43
-15 -18 -3 -19 -2 -2 8 9 6 15 14 12 20 -3 5 -1 17 5 26 9 15 10 14 4 -7 -6
-23 -6 -24 11 -10 11 9 16 10 11 2 -5 -9 2 -11 28 -7 21 2 36 0 36 -6 0 -6 -4
-7 -10 -4 -15 9 -12 -4 4 -21 19 -19 27 -18 20 4 -5 13 -4 14 4 3 5 -7 7 -22
5 -32 -3 -10 -1 -19 3 -20 5 0 21 -3 36 -5 23 -4 26 -1 23 16 -2 11 0 18 5 15
5 -3 7 -17 4 -30 -4 -25 13 -32 27 -11 4 4 10 3 13 -3 4 -6 4 -11 -1 -12 -24
-2 -46 -8 -51 -15 -4 -4 1 -4 11 -1 10 4 17 1 17 -6 0 -8 3 -9 8 -1 10 15 41
14 36 -1 -3 -7 2 -18 10 -25 9 -7 13 -17 9 -23 -3 -6 -1 -7 5 -3 9 5 9 13 2
26 -15 28 -12 32 9 14 10 -9 17 -26 15 -40 -1 -13 2 -22 7 -18 5 3 9 1 9 -4 0
-6 9 -8 20 -5 18 5 25 -5 21 -30 -1 -5 3 -6 9 -2 6 3 8 10 6 14 -3 4 1 8 9 8
11 0 12 -5 4 -20 -6 -10 -8 -21 -5 -25 3 -3 6 0 6 7 0 7 5 9 10 6 6 -4 8 -10
5 -15 -3 -4 1 -7 7 -6 16 2 22 21 8 21 -24 0 -12 19 12 20 24 2 26 0 15 -13
-10 -13 -9 -15 6 -9 10 4 16 3 12 -2 -3 -5 1 -11 7 -14 10 -3 10 -7 -1 -20 -7
-10 -11 -18 -7 -18 3 -1 11 -2 16 -3 6 0 15 -7 20 -15 10 -17 40 -24 40 -9 0
6 -6 8 -13 5 -7 -3 -13 3 -13 14 0 13 3 15 13 7 7 -6 13 -7 13 -2 0 5 5 1 11
-9 8 -13 7 -22 -1 -33 -9 -10 -9 -14 -1 -14 6 0 11 4 11 9 0 5 8 18 18 27 14
15 14 17 1 12 -21 -8 -42 25 -26 41 8 8 8 11 -2 11 -7 0 -9 5 -5 13 4 6 4 9
-1 5 -10 -9 -37 11 -30 22 7 11 -22 6 -32 -5 -4 -4 -3 -5 3 -2 6 3 11 0 11 -8
0 -8 -4 -15 -8 -15 -13 0 -17 24 -7 43 8 15 5 20 -11 24 -11 3 -18 10 -14 16
4 7 0 8 -12 3 -16 -6 -16 -4 -4 11 13 17 13 17 -13 1 -24 -16 -26 -16 -24 -1
2 9 11 17 20 19 31 5 30 14 -1 10 -24 -2 -29 0 -26 14 2 9 -4 23 -13 31 -11 8
-15 9 -10 2 5 -9 2 -11 -8 -7 -9 3 -13 10 -10 15 3 5 0 9 -7 9 -8 0 -8 4 1 15
14 17 14 17 -17 20 -33 3 -55 14 -49 24 8 12 -19 22 -31 10 -5 -5 -9 0 -10 13
-2 15 1 18 6 10 6 -10 10 -10 19 1 9 11 7 13 -9 12 -11 -1 -25 -8 -30 -16 -12
-19 -12 -3 0 20 6 11 6 22 -1 32 -8 11 -9 11 -4 -3 6 -20 -28 -45 -39 -28 -6
9 0 13 15 12 3 0 6 8 6 18 0 17 -7 18 -46 7 -8 -2 -12 -2 -8 0 4 3 2 15 -4 29
-9 20 -14 22 -26 11 -13 -10 -15 -9 -9 6 4 11 3 16 -3 12 -6 -3 -10 -1 -10 4
0 6 -5 11 -10 11 -7 0 -7 -6 -1 -18 7 -14 6 -19 -3 -19 -17 0 -13 36 5 48 20
13 2 11 -23 -2 -12 -6 -18 -7 -14 -1 3 5 0 12 -8 15 -8 3 -12 15 -9 31 3 14 9
23 14 20 5 -3 9 0 9 6 0 6 5 8 12 4 7 -4 8 -3 4 4 -5 9 -13 9 -27 1 -12 -6
-24 -8 -27 -4 -3 3 4 8 16 12 26 6 29 20 5 27 -11 3 -9 4 6 3 13 -1 26 3 28
10 3 7 -5 10 -21 9 -14 -2 -23 0 -21 5 3 4 2 9 -2 12 -5 2 -1 2 7 0 39 -12 49
-11 44 2 -3 7 -15 11 -27 9 -12 -2 -16 -2 -9 2 17 8 15 21 -3 21 -8 0 -12 -4
-9 -9 3 -4 -4 -8 -15 -8 -13 0 -21 7 -22 18 0 10 -3 12 -6 4 -2 -6 -10 -9 -16
-6 -7 3 -1 -4 13 -15 14 -11 20 -21 13 -21 -6 0 -15 5 -18 10 -3 6 -13 10 -21
10 -8 0 -13 -4 -10 -8 3 -5 -1 -9 -9 -9 -8 0 -12 4 -9 9 3 4 0 8 -6 8 -6 0 -8
5 -4 13 6 9 4 9 -8 -1 -14 -11 -17 -10 -20 5 -3 15 -5 14 -10 -5 -3 -12 -3
-20 1 -18 4 3 13 1 21 -4 10 -6 5 -8 -15 -6 -17 1 -36 5 -43 9 -6 5 -16 6 -21
2 -5 -3 -17 3 -27 12 -21 22 -94 26 -86 5 3 -9 7 -10 11 -3 4 6 12 2 20 -10
10 -17 10 -20 -1 -13 -7 5 -33 9 -58 10 -25 1 -46 3 -47 4 -2 1 -6 3 -10 4 -5
1 -19 9 -31 18 -18 12 -22 22 -17 37 3 12 11 21 18 21 8 0 8 -3 -1 -12 -19
-19 -14 -32 6 -17 15 13 16 12 4 -3 -8 -10 -9 -19 -3 -22 13 -8 19 24 10 51
-6 17 -3 26 13 37 12 8 25 13 29 10 4 -2 10 0 14 6 3 5 1 10 -4 10 -6 0 -11 5
-11 10 0 6 8 5 20 -2 19 -12 28 -31 12 -25 -4 1 -8 -1 -10 -5 -1 -5 1 -8 4 -7
4 0 11 -5 16 -13 7 -10 9 -10 7 2 -3 26 1 44 8 37 3 -4 12 -2 20 4 10 9 17 8
28 -1 9 -8 15 -8 15 -2 0 6 -9 13 -20 17 -11 3 -19 9 -17 13 2 8 -7 12 -24 12
-6 0 -9 -7 -5 -15 8 -22 -10 -18 -26 4 -14 19 -14 19 -26 1 -7 -11 -18 -17
-27 -14 -8 3 -12 11 -8 17 4 6 1 7 -6 3 -9 -6 -8 -13 6 -29 9 -12 11 -16 3 -9
-19 16 -35 15 -21 -2 9 -10 7 -17 -6 -27 -16 -13 -17 -12 -5 3 15 19 3 31 -38
34 -14 1 -34 5 -44 9 -15 7 -17 5 -11 -6 6 -11 5 -11 -5 -2 -7 6 -19 9 -26 6
-9 -3 -14 2 -14 13 0 16 -2 17 -10 4 -5 -8 -10 -10 -10 -4 0 5 4 14 9 20 6 5
12 23 14 39 2 17 9 31 15 31 23 3 24 4 11 21 -12 14 -12 16 0 8 24 -14 63 -12
69 3 3 8 0 23 -6 33 -9 13 -9 20 0 25 6 4 8 3 5 -2 -3 -5 3 -20 12 -33 l18
-23 -5 33 c-5 32 -4 33 13 16 9 -10 20 -15 23 -12 4 3 0 10 -7 14 -17 11 -5
32 14 24 8 -3 15 0 15 6 0 6 -4 11 -10 11 -5 0 -10 5 -10 11 0 8 4 8 14 0 10
-8 16 -9 21 -1 3 5 1 10 -6 10 -10 0 -10 3 -2 11 6 6 16 8 22 5 7 -5 2 -19
-14 -40 -18 -23 -21 -33 -10 -33 7 0 14 3 13 6 -2 18 3 32 10 27 4 -2 18 2 32
10 l25 15 -24 -7 c-16 -4 -21 -3 -16 5 4 7 2 18 -5 26 -9 10 -7 20 7 41 10 16
13 25 6 21 -6 -4 -13 -2 -16 5 -2 7 -3 5 -2 -4 2 -10 -1 -21 -6 -24 -9 -5 -13
11 -9 31 1 6 -2 6 -7 2 -4 -5 -8 -14 -8 -20 0 -7 -12 -11 -25 -10 -14 1 -19
-1 -12 -3 6 -3 10 -9 8 -13 -3 -4 1 -8 9 -8 8 0 15 4 15 9 0 4 4 8 8 8 5 0 9
-7 9 -15 0 -8 -3 -13 -5 -10 -3 3 -11 -3 -19 -13 -12 -15 -12 -15 -7 0 4 13 1
15 -17 11 -17 -5 -20 -3 -14 7 6 9 4 11 -4 6 -9 -6 -8 -13 6 -29 18 -20 18
-20 -7 -4 -15 10 -31 13 -38 8 -11 -7 -10 -10 3 -14 11 -5 14 -3 9 6 -5 8 -2
7 9 -2 18 -14 23 -26 8 -16 -5 3 -12 1 -16 -5 -3 -5 -12 -10 -18 -10 -7 0 -6
4 3 10 13 8 12 10 -2 10 -10 0 -18 -4 -18 -10 0 -14 -33 -12 -50 3 -8 6 -5 1
6 -13 30 -36 41 -59 15 -32 -24 25 -40 30 -21 7 11 -13 10 -14 -4 -9 -9 4 -16
3 -14 -2 2 -5 -1 -10 -6 -11 -5 -1 -13 -7 -18 -15 -8 -10 -9 -10 -5 2 2 8 10
14 17 12 11 -2 10 1 0 15 -22 28 -24 29 -17 10 4 -11 1 -20 -8 -23 -8 -4 -12
-11 -8 -17 4 -7 0 -8 -11 -4 -13 5 -17 3 -13 -7 5 -11 0 -13 -25 -5 -30 8 -30
8 -13 -11 10 -11 23 -17 29 -13 6 3 7 2 3 -2 -10 -11 -39 -16 -32 -5 3 4 -2
11 -11 14 -12 4 -15 2 -11 -9 4 -8 2 -17 -4 -20 -5 -4 -8 -1 -7 6 2 9 -8 14
-28 14 -23 1 -30 -3 -32 -18 0 -11 -6 -25 -13 -31 -9 -8 -10 -8 -4 3 5 9 3 12
-6 9 -8 -3 -13 -11 -11 -17 1 -7 -2 -10 -8 -6 -6 4 -17 2 -25 -5 -8 -7 -15 -7
-19 -1 -4 5 -20 8 -38 6 -29 -4 -30 -4 -12 11 17 14 17 15 1 10 -10 -3 -16 -2
-12 3 3 5 -1 12 -7 14 -10 4 -10 6 0 6 6 1 21 -8 32 -19 11 -11 20 -16 20 -11
0 5 -6 16 -13 23 -20 20 -20 27 -2 54 24 38 28 64 7 58 -15 -5 -15 -4 1 6 9 6
22 8 29 4 7 -4 8 -3 4 4 -8 13 27 35 40 24 5 -4 2 1 -6 11 -13 18 -14 18 -29
0 -9 -10 -15 -16 -14 -14 2 2 -2 10 -8 17 -7 8 -6 14 2 20 8 4 9 3 5 -4 -4 -7
-3 -12 3 -12 18 0 21 17 6 30 -12 10 -18 8 -32 -6 -10 -10 -18 -21 -18 -25 0
-4 -4 -11 -9 -16 -5 -5 -6 -3 -2 5 4 7 2 12 -6 12 -11 0 -10 2 0 9 11 6 9 9
-6 13 -17 5 -20 2 -16 -18 2 -13 0 -24 -6 -24 -6 0 -9 4 -6 9 3 5 -3 11 -14
14 -17 4 -18 2 -9 -15 6 -11 8 -22 5 -26 -3 -3 -6 0 -6 6 0 7 -5 12 -11 12 -5
0 -7 -6 -3 -12 4 -7 4 -10 -1 -6 -4 4 -15 3 -24 -1 -18 -10 -81 32 -68 45 4 4
7 2 7 -4 0 -7 5 -12 10 -12 12 0 9 22 -5 32 -6 5 -5 8 3 8 6 0 12 5 12 11 0 5
-4 8 -8 5 -4 -2 -8 4 -9 14 -1 11 2 22 8 25 5 3 6 0 3 -8 -7 -20 18 -38 36
-25 12 8 12 9 -2 4 -28 -9 -21 17 10 38 24 15 20 16 -18 3 -3 -1 -6 3 -7 8 -1
6 5 9 13 7 8 -2 14 3 13 10 -3 27 1 39 13 32 7 -5 9 -2 5 9 -4 12 -2 14 10 10
14 -5 13 -9 -7 -25 -25 -20 -25 -20 13 -22 25 -2 26 0 12 10 -11 8 -13 14 -5
19 8 5 7 11 -2 23 -11 13 -11 14 1 8 8 -5 17 -3 22 5 8 12 10 12 18 0 7 -11 9
-3 8 24 -2 39 -2 39 35 38 22 0 36 4 35 11 -1 6 8 10 21 8 27 -4 29 4 2 11
-11 3 -27 -1 -35 -9 -11 -12 -19 -13 -32 -4 -17 11 -17 11 0 6 11 -3 20 0 23
9 4 8 10 12 15 9 5 -3 9 3 9 13 1 17 1 17 11 1 5 -10 15 -18 22 -18 8 0 8 3 2
8 -5 4 -11 16 -12 27 -1 11 0 14 3 7 3 -6 11 -9 16 -6 6 4 8 2 4 -4 -11 -18
11 -23 25 -6 19 23 21 47 3 40 -8 -3 -12 -1 -9 4 7 11 41 8 52 -5 5 -4 2 -5
-4 -1 -7 4 -13 3 -13 -3 0 -5 9 -9 19 -8 17 1 17 3 4 23 -11 17 -11 24 -2 30
8 5 9 3 4 -6 -6 -10 -4 -12 7 -7 9 3 19 3 22 -1 13 -12 44 -9 39 5 -4 11 -8
11 -21 1 -14 -12 -14 -11 -2 9 12 18 17 20 29 10 12 -10 14 -9 8 5 -4 13 -2
15 10 11 11 -4 14 -2 9 5 -4 8 -2 10 8 6 9 -3 12 -12 9 -21 -4 -11 -2 -14 5
-9 16 10 15 36 0 36 -9 0 -8 3 2 9 8 6 18 7 22 5 4 -3 8 0 8 5 0 6 -5 11 -12
11 -6 0 -8 3 -5 6 4 4 13 2 20 -5 11 -8 18 -6 32 9 10 11 24 20 30 20 7 0 16
7 19 16 3 8 2 13 -3 9 -16 -10 -40 6 -34 23 4 15 3 15 -6 2 -9 -12 -13 -13
-20 -2 -7 11 -9 10 -15 -3z m31 -45 c-20 -17 -23 -17 -38 -2 -14 15 -14 18 0
28 10 8 22 9 37 2 l23 -11 -22 -17z m-197 -31 c0 -5 -3 -8 -7 -8 -19 3 -34 -2
-29 -9 3 -5 -1 -9 -9 -9 -10 0 -10 5 3 22 16 21 42 23 42 4z m84 -17 c3 -5 -1
-9 -9 -9 -8 0 -12 4 -9 9 3 4 7 8 9 8 2 0 6 -4 9 -8z m-67 -17 c0 -8 -4 -12
-9 -9 -5 3 -6 10 -3 15 9 13 12 11 12 -6z m-57 -99 c0 -2 -7 -9 -15 -16 -13
-11 -14 -10 -9 4 5 14 24 23 24 12z m-431 -132 c4 3 8 -1 8 -8 0 -11 -4 -12
-18 -3 -10 6 -15 16 -12 21 4 6 8 5 11 -2 2 -7 7 -10 11 -8z m261 6 c-18 -12
-30 -13 -30 -2 0 4 10 9 22 9 18 2 20 0 8 -7z m61 -243 c-10 -9 -11 -8 -5 6 3
10 9 15 12 12 3 -3 0 -11 -7 -18z m449 -11 c0 -3 -4 -8 -10 -11 -5 -3 -10 -1
-10 4 0 6 5 11 10 11 6 0 10 -2 10 -4z m-451 -48 c-5 -10 -14 -18 -19 -18 -5
0 -7 -10 -5 -21 3 -12 1 -18 -3 -15 -4 4 -7 11 -7 14 0 4 -4 13 -8 20 -5 7 -5
12 0 11 19 -3 33 2 33 12 0 5 -5 7 -12 3 -6 -4 -8 -3 -5 3 3 5 13 10 21 10 11
0 13 -5 5 -19z m391 -12 c0 -2 -7 -7 -16 -10 -8 -3 -12 -2 -9 4 6 10 25 14 25
6z m-864 -36 c0 -12 -4 -16 -9 -11 -5 5 -6 14 -3 20 10 15 12 14 12 -9z m874
10 c0 -5 -2 -10 -4 -10 -3 0 -8 5 -11 10 -3 6 -1 10 4 10 6 0 11 -4 11 -10z
m-243 -35 c0 -6 -9 -11 -19 -11 -18 0 -23 8 -13 18 9 9 32 5 32 -7z m-650 -15
c1 -11 -2 -22 -8 -25 -5 -4 -6 2 -2 11 4 12 3 15 -5 10 -8 -5 -10 -2 -6 8 8
22 19 20 21 -4z m778 -10 c3 -5 1 -10 -4 -10 -6 0 -11 5 -11 10 0 6 2 10 4 10
3 0 8 -4 11 -10z m-807 -69 c-1 -23 -4 -26 -13 -17 -10 8 -10 13 -1 18 6 4 7
8 3 8 -5 0 -5 5 -2 10 10 17 14 11 13 -19z m1108 4 c-1 -8 -5 -17 -8 -21 -5
-4 -4 16 1 34 3 9 9 -1 7 -13z m-266 -31 c0 -8 -19 -13 -24 -6 -3 5 1 9 9 9 8
0 15 -2 15 -3z m-2104 -110 c-9 -8 -13 -21 -10 -27 5 -9 3 -8 -6 0 -11 10 -11
15 0 28 7 8 17 15 22 15 5 0 2 -7 -6 -16z m2424 -16 c0 -4 -7 -8 -15 -8 -8 0
-15 4 -15 8 0 5 7 9 15 9 8 0 15 -4 15 -9z m-2426 -36 c3 -5 -1 -9 -9 -9 -8 0
-15 4 -15 9 0 4 4 8 9 8 6 0 12 -4 15 -8z m2491 -10 c-3 -3 -11 0 -18 7 -9 10
-8 11 6 5 10 -3 15 -9 12 -12z m-2532 -9 c-4 -10 -2 -14 4 -10 13 8 11 -19 -2
-30 -4 -4 -5 -3 -1 4 3 6 2 14 -3 17 -14 9 -21 -20 -8 -35 10 -11 9 -11 -5 -1
-18 15 -18 33 1 56 17 21 22 20 14 -1z m2697 -23 c0 -5 -2 -10 -4 -10 -3 0 -8
5 -11 10 -3 6 -1 10 4 10 6 0 11 -4 11 -10z m2 -48 c-7 -2 -9 -9 -5 -15 3 -7
2 -8 -2 -4 -16 14 -14 36 3 29 10 -4 12 -7 4 -10z m-2439 -46 c-2 -3 -3 -13
-3 -21 0 -8 -4 -15 -10 -15 -5 0 -9 6 -7 13 1 6 -3 11 -8 10 -6 -1 -12 10 -13
24 -2 24 -1 25 21 10 12 -8 21 -17 20 -21z m-323 14 c0 -5 -5 -10 -11 -10 -5
0 -7 5 -4 10 3 6 8 10 11 10 2 0 4 -4 4 -10z m20 -20 c0 -5 -5 -10 -11 -10 -5
0 -7 5 -4 10 3 6 8 10 11 10 2 0 4 -4 4 -10z m2754 2 c3 -5 -1 -9 -9 -9 -8 0
-12 4 -9 9 3 4 7 8 9 8 2 0 6 -4 9 -8z m-2414 -13 c0 -5 4 -8 9 -5 5 3 17 -2
28 -12 10 -9 13 -13 6 -8 -8 5 -26 10 -41 12 -35 3 -34 2 -27 14 8 13 25 13
25 -1z m-405 -29 c-3 -5 -1 -10 6 -10 7 0 10 -2 7 -5 -8 -9 -38 6 -32 16 3 5
10 9 15 9 6 0 7 -4 4 -10z m2916 -33 c-10 -9 -11 -8 -5 6 3 10 9 15 12 12 3
-3 0 -11 -7 -18z m59 -11 c0 -2 -8 -10 -17 -17 -16 -13 -17 -12 -4 4 13 16 21
21 21 13z m90 -121 c0 -5 -5 -3 -10 5 -5 8 -10 20 -10 25 0 6 5 3 10 -5 5 -8
10 -19 10 -25z m-2110 5 c13 -8 13 -10 -2 -10 -9 0 -20 5 -23 10 -8 13 5 13
25 0z m-550 -10 c0 -5 -5 -10 -11 -10 -5 0 -7 5 -4 10 3 6 8 10 11 10 2 0 4
-4 4 -10z m2538 -12 c11 -14 10 -16 -5 -14 -10 2 -17 6 -15 9 1 4 2 12 2 19 0
6 1 9 3 7 1 -2 8 -12 15 -21z m182 6 c-15 -17 -17 -17 -23 -1 -3 8 3 14 15 14
16 2 17 -1 8 -13z m-3301 -15 c-13 -12 -23 -25 -21 -30 1 -5 -3 -9 -9 -9 -5 0
-8 -4 -4 -9 3 -5 1 -12 -4 -15 -5 -4 -12 -3 -15 2 -6 11 51 82 66 82 6 0 0 -9
-13 -21z m2986 -4 c0 -10 -7 -20 -15 -22 -13 -4 -13 -3 0 6 12 9 12 11 -3 17
-9 3 -14 10 -11 16 9 15 29 3 29 -17z m335 -90 c0 -2 -9 -3 -19 -2 -11 0 -18
5 -15 9 4 6 34 0 34 -7z m-2230 -15 c-13 -8 -13 -10 2 -10 9 0 20 -4 23 -10 4
-6 -1 -7 -11 -3 -13 5 -15 3 -9 -8 4 -8 5 -11 0 -7 -4 4 -15 2 -24 -5 -14 -10
-14 -10 -3 4 7 9 12 21 11 25 -3 17 1 24 14 24 8 0 7 -4 -3 -10z m2246 -5 c-3
-8 0 -15 6 -15 6 0 9 -3 5 -6 -10 -11 -26 6 -20 21 3 8 7 15 10 15 3 0 3 -7
-1 -15z m-36 -9 c-7 -7 -13 -7 -20 0 -6 6 -3 10 10 10 13 0 16 -4 10 -10z
m100 0 c0 -3 -4 -8 -10 -11 -5 -3 -10 -1 -10 4 0 6 5 11 10 11 6 0 10 -2 10
-4z m40 -10 c0 -2 -9 -6 -20 -9 -11 -3 -18 -1 -14 4 5 9 34 13 34 5z m-2340
-30 c0 -3 -4 -8 -10 -11 -5 -3 -10 -1 -10 4 0 6 5 11 10 11 6 0 10 -2 10 -4z
m2397 -59 c0 -12 -4 -14 -11 -7 -15 15 -29 12 -22 -6 3 -8 2 -12 -3 -9 -12 7
-10 45 2 45 5 0 6 8 2 18 -5 14 -3 13 13 -3 10 -11 19 -28 19 -38z m-3541 27
c-5 -12 -2 -15 11 -10 14 6 15 5 6 -5 -10 -10 -15 -9 -27 1 -16 13 -13 30 6
30 5 0 7 -7 4 -16z m1079 -34 c4 -6 11 -7 17 -4 6 4 8 2 5 -4 -8 -12 -47 -4
-47 9 0 12 17 11 25 -1z m2075 -29 c0 -14 -26 -20 -41 -9 -11 8 -11 9 3 4 10
-3 20 -1 23 4 8 12 15 13 15 1z m-3172 -58 c-5 -7 -6 -18 -2 -25 4 -7 3 -10
-2 -5 -5 5 -9 21 -10 37 -1 23 1 26 11 17 9 -8 10 -16 3 -24z m3177 -33 c3 -5
1 -10 -4 -10 -6 0 -11 5 -11 10 0 6 2 10 4 10 3 0 8 -4 11 -10z m-3223 -27
c-10 -4 -10 -8 0 -21 12 -14 11 -14 -9 -1 -16 9 -19 16 -10 21 7 4 17 7 22 7
6 0 4 -3 -3 -6z m3273 -33 c-3 -5 -12 -10 -18 -10 -7 0 -6 4 3 10 19 12 23 12
15 0z m-14 -43 c-10 -9 -11 -8 -5 6 3 10 9 15 12 12 3 -3 0 -11 -7 -18z
m-2277 -6 c3 -5 -1 -11 -9 -15 -8 -3 -17 0 -21 6 -4 7 -3 8 4 4 7 -4 12 -2 12
3 0 13 7 14 14 2z m20 -29 c3 -5 -1 -9 -9 -9 -8 0 -15 4 -15 9 0 4 4 8 9 8 6
0 12 -4 15 -8z m2317 -95 c-10 -9 -11 -8 -5 6 3 10 9 15 12 12 3 -3 0 -11 -7
-18z m-173 -4 c-12 -14 -8 -16 16 -7 9 3 13 10 10 15 -3 5 0 9 5 9 10 0 15
-14 12 -34 -1 -5 5 -6 14 -2 9 3 13 2 10 -3 -3 -5 4 -12 15 -16 11 -3 20 -11
20 -16 0 -6 -4 -8 -9 -5 -5 3 -11 -3 -14 -14 -3 -11 -1 -18 3 -15 5 3 13 -3
19 -12 6 -10 11 -13 11 -7 0 5 -3 14 -7 20 -5 5 -4 6 1 2 5 -4 15 -3 22 3 8 7
14 6 20 -2 4 -7 3 -9 -4 -5 -6 3 -17 -6 -25 -22 -13 -28 -13 -29 10 -26 19 2
23 -1 19 -13 -5 -13 -4 -13 7 -4 12 9 14 6 12 -14 -2 -14 1 -23 6 -19 5 3 6
10 3 16 -5 7 -2 8 5 4 7 -5 10 -15 6 -24 -3 -9 -3 -13 1 -9 4 4 14 2 21 -5 11
-9 16 -9 23 3 7 10 9 8 7 -9 -1 -23 -12 -29 -22 -12 -8 13 -25 13 -25 0 0 -5
6 -9 13 -7 6 1 11 -4 9 -11 -1 -8 2 -11 7 -7 12 7 46 -53 43 -75 -3 -13 -2
-13 7 0 5 8 7 18 5 22 -3 4 3 5 12 1 11 -4 13 -8 6 -11 -7 -2 -12 -8 -12 -13
0 -6 5 -7 10 -4 6 3 10 -1 10 -9 0 -9 4 -16 9 -16 4 0 7 12 5 28 -2 16 -1 19
2 7 4 -11 11 -27 18 -35 6 -8 11 -26 10 -40 -1 -20 4 -26 20 -27 18 -2 19 -1
4 8 -10 6 -15 16 -11 25 5 14 8 12 19 -7 7 -13 10 -27 8 -31 -3 -5 0 -8 5 -8
6 0 11 -9 11 -20 0 -11 5 -20 11 -20 5 0 7 -6 4 -12 -4 -7 3 -2 14 11 12 13
22 19 22 15 1 -5 3 -19 4 -31 1 -13 8 -30 15 -38 7 -9 10 -18 7 -22 -11 -10
14 -34 27 -26 6 4 5 -1 -3 -10 -13 -17 -36 -14 -26 4 10 15 -5 10 -23 -8 -16
-16 -16 -16 1 -10 9 3 17 2 17 -3 0 -6 7 -10 15 -10 8 0 15 -4 15 -10 0 -5 -7
-6 -17 -3 -10 4 -14 2 -9 -5 3 -6 2 -13 -3 -17 -6 -3 -8 3 -6 15 3 14 -1 20
-16 20 -16 0 -22 -9 -21 -30 0 -3 -15 -6 -34 -6 -19 -1 -34 2 -34 7 0 4 9 6
20 4 11 -2 18 0 15 5 -3 6 1 7 9 4 9 -3 16 -2 16 3 0 11 -45 11 -56 0 -12 -11
-26 -8 -18 5 5 7 3 8 -6 3 -17 -10 -55 -17 -102 -16 -21 0 -40 -4 -43 -9 -3
-4 3 -7 12 -6 10 2 12 1 6 -1 -7 -3 -13 -10 -13 -16 0 -7 -5 -4 -11 6 -5 9 -7
22 -3 29 4 7 3 8 -5 4 -6 -4 -20 -2 -29 5 -16 13 -16 12 0 -6 14 -18 15 -23 3
-45 -8 -14 -14 -21 -15 -17 0 5 4 16 10 26 8 16 5 19 -15 19 -14 0 -22 -4 -19
-9 8 -13 -6 -11 -20 4 -7 7 -11 18 -10 25 1 7 0 8 -3 2 -3 -7 -10 -7 -21 2
-12 10 -14 10 -8 1 4 -7 2 -13 -3 -13 -6 0 -11 5 -11 11 0 6 -7 8 -15 5 -8 -3
-21 -9 -29 -12 -10 -4 -14 1 -12 18 2 13 -1 33 -6 43 -8 19 -8 19 -4 -1 2 -12
0 -28 -4 -35 -5 -7 -7 2 -6 22 4 48 5 51 14 45 5 -3 8 9 7 26 -1 18 -7 34 -14
36 -6 2 -11 11 -11 21 0 9 -6 23 -12 31 -11 12 -10 12 3 2 9 -6 18 -9 22 -6 3
3 4 -5 1 -18 l-5 -23 11 23 c6 14 15 20 21 16 8 -4 9 -3 5 5 -4 6 -11 9 -16 6
-4 -3 -19 4 -31 14 l-24 19 28 11 c30 12 33 16 15 27 -6 4 -8 3 -5 -3 3 -5 0
-10 -7 -10 -11 0 -12 4 -3 18 7 11 19 15 36 12 14 -2 23 -1 19 2 -5 6 -26 11
-49 14 -4 1 -9 8 -13 16 -4 13 -2 13 14 5 24 -13 40 -13 20 0 -12 8 -13 13 -2
30 15 24 15 30 1 30 -5 0 -7 -5 -3 -12 5 -7 3 -8 -6 -3 -8 5 -11 4 -6 -3 3 -6
1 -14 -5 -18 -8 -4 -9 -3 -5 4 4 7 1 12 -6 12 -8 0 -7 4 4 11 14 8 15 15 7 36
-8 22 -7 24 4 14 11 -9 17 -7 28 6 13 16 12 17 -3 4 -16 -12 -18 -11 -18 14 0
20 -4 26 -16 21 -8 -3 -12 -2 -9 4 3 6 15 10 25 10 10 0 21 4 25 9 3 6 -3 8
-14 6 -14 -3 -18 1 -14 16 3 10 9 17 13 14 4 -2 7 5 6 18 -1 13 4 21 12 20 6
-2 11 0 10 5 -2 4 2 8 7 9 6 0 9 -2 8 -5 -1 -4 10 -8 24 -9 l25 -1 -28 18
c-17 10 -33 14 -40 9 -6 -5 -15 -5 -19 -1 -5 4 -4 0 0 -8 8 -13 6 -13 -7 -2
-10 8 -14 20 -11 29 5 12 3 14 -7 8 -8 -5 -11 -4 -7 1 3 5 15 10 26 10 15 0
17 -3 9 -13z m237 -34 c0 -8 6 -24 13 -36 8 -14 9 -23 2 -23 -5 0 -10 7 -10
15 0 8 -6 12 -14 9 -8 -3 -17 -1 -21 5 -3 7 0 8 10 5 24 -10 8 22 -18 34 -20
9 -20 10 8 7 17 -1 30 -8 30 -16z m-255 -14 c11 7 7 -15 -6 -39 -11 -18 -11
-17 -16 2 -5 16 -2 19 11 15 13 -5 14 -3 4 8 -7 7 -13 18 -12 24 0 5 3 4 6 -3
2 -6 8 -10 13 -7z m184 -74 c-9 -9 -34 -9 -34 -1 0 5 9 8 20 7 10 -1 17 -3 14
-6z m52 -45 c0 -14 -3 -23 -7 -20 -6 3 -6 22 0 42 3 10 7 -2 7 -22z m-256 -56
c0 -5 -2 -10 -4 -10 -3 0 -8 5 -11 10 -3 6 -1 10 4 10 6 0 11 -4 11 -10z
m1276 -2 c-2 -14 -8 -18 -28 -18 -6 0 -3 7 8 15 23 18 23 18 20 3z m-976 -18
c0 -5 -5 -10 -11 -10 -5 0 -7 5 -4 10 3 6 8 10 11 10 2 0 4 -4 4 -10z m923
-16 c-4 -12 -8 -13 -14 -3 -9 15 -2 32 11 24 5 -3 6 -13 3 -21z m-882 -19 c5
4 9 1 9 -4 0 -14 -17 -14 -26 0 -5 8 -9 8 -14 -1 -5 -8 -9 -7 -13 5 -4 9 -3
13 3 10 6 -3 10 0 10 7 0 8 5 6 11 -5 6 -9 14 -15 20 -12z m854 -65 c-3 -5
-14 -10 -23 -9 -14 0 -13 2 3 9 27 11 27 11 20 0z m-80 -20 c3 -6 -1 -7 -9 -4
-18 7 -21 14 -7 14 6 0 13 -4 16 -10z m62 -7 c-4 -3 -1 -13 6 -22 11 -14 10
-14 -5 -2 -16 12 -16 31 -1 31 4 0 3 -3 0 -7z m-672 -21 c-3 -3 -11 0 -18 7
-9 10 -8 11 6 5 10 -3 15 -9 12 -12z m-32 -53 c-4 -16 -8 -17 -14 -7 -5 7 -4
14 1 16 6 2 7 9 4 14 -4 6 -2 8 4 5 5 -4 8 -16 5 -28z m47 -3 c-15 -15 -33 4
-19 20 10 12 14 12 20 2 5 -7 4 -17 -1 -22z m-505 -46 c8 -13 -13 -50 -28 -49
-9 0 -9 2 1 6 6 2 10 9 6 14 -3 5 0 9 5 9 6 0 11 5 11 11 0 6 -7 8 -16 5 -8
-3 -12 -2 -9 4 8 13 22 13 30 0z m540 -38 c-6 -6 -34 11 -39 24 -4 11 0 10 18
-3 13 -10 23 -19 21 -21z m10 28 c3 -5 2 -10 -4 -10 -5 0 -13 5 -16 10 -3 6
-2 10 4 10 5 0 13 -4 16 -10z m-25 -50 c0 -5 -5 -10 -11 -10 -5 0 -7 5 -4 10
3 6 8 10 11 10 2 0 4 -4 4 -10z m40 0 c0 -5 -2 -10 -4 -10 -3 0 -8 5 -11 10
-3 6 -1 10 4 10 6 0 11 -4 11 -10z m454 -2 c-3 -4 -11 -5 -19 -1 -21 7 -19 12
4 10 11 0 18 -5 15 -9z m-432 -15 c-6 -2 -9 -10 -6 -15 4 -7 2 -8 -5 -4 -13 9
-5 26 12 25 9 0 8 -2 -1 -6z m-522 -74 c0 -5 -4 -9 -10 -9 -5 0 -10 7 -10 16
0 8 5 12 10 9 6 -3 10 -10 10 -16z m30 1 c0 -5 -5 -10 -11 -10 -5 0 -7 5 -4
10 3 6 8 10 11 10 2 0 4 -4 4 -10z m240 -15 c14 -18 14 -19 -2 -7 -9 8 -22 11
-27 7 -6 -3 -19 -1 -28 5 -16 10 -15 10 4 5 12 -3 24 -1 28 5 4 6 8 10 9 8 1
-2 8 -12 16 -23z m30 21 c0 -3 -4 -8 -10 -11 -5 -3 -10 -1 -10 4 0 6 5 11 10
11 6 0 10 -2 10 -4z m-130 -121 c-12 -14 -43 -16 -56 -2 -4 3 5 4 19 1 14 -2
29 0 32 6 3 5 9 10 12 10 3 0 0 -7 -7 -15z m230 -65 c0 -5 -5 -10 -11 -10 -5
0 -7 5 -4 10 3 6 8 10 11 10 2 0 4 -4 4 -10z m-39 -47 c13 -16 12 -17 -3 -4
-17 13 -22 21 -14 21 2 0 10 -8 17 -17z m-2241 -11 c0 -5 -7 -9 -15 -9 -8 0
-12 4 -9 9 3 4 9 8 15 8 5 0 9 -4 9 -8z m2315 -2 c3 -5 1 -10 -4 -10 -6 0 -11
5 -11 10 0 6 2 10 4 10 3 0 8 -4 11 -10z m-479 -72 c4 -7 3 -8 -4 -4 -7 4 -12
2 -12 -5 0 -7 -3 -10 -6 -6 -6 5 3 27 11 27 2 0 7 -5 11 -12z m-1612 -50 c-9
-14 -23 2 -17 18 4 12 8 13 14 3 4 -7 5 -17 3 -21z m1614 2 c-7 -11 -15 -15
-17 -9 -2 6 3 15 10 20 20 12 21 11 7 -11z m-366 -54 c5 3 4 -3 -4 -15 -7 -12
-16 -21 -20 -21 -5 0 -11 0 -15 0 -5 0 -9 9 -9 20 -1 11 3 20 8 20 5 0 6 -10
3 -21 -6 -19 -5 -20 8 -8 8 8 14 18 12 24 -1 5 0 7 2 2 3 -4 9 -4 15 -1z m31
-56 c-6 -21 -18 -26 -28 -11 -4 7 17 28 32 31 0 0 -1 -9 -4 -20z m-1123 -70
c0 -5 -5 -10 -11 -10 -5 0 -7 5 -4 10 3 6 8 10 11 10 2 0 4 -4 4 -10z m600 0
c0 -5 -4 -10 -10 -10 -5 0 -10 5 -10 10 0 6 5 10 10 10 6 0 10 -4 10 -10z
m120 -24 c-15 -15 -44 -17 -31 -2 6 7 18 13 26 13 11 0 12 -4 5 -11z m553 -11
c-3 -9 -8 -14 -10 -11 -3 3 -2 9 2 15 9 16 15 13 8 -4z m-459 -11 c3 -8 2 -12
-4 -9 -6 3 -10 10 -10 16 0 14 7 11 14 -7z m-34 -24 c-6 -11 -13 -20 -16 -20
-2 0 0 9 6 20 6 11 13 20 16 20 2 0 0 -9 -6 -20z m11 -28 c-16 -29 -14 -37 6
-21 11 10 14 10 9 2 -6 -12 5 -18 27 -14 4 0 7 -4 7 -10 0 -6 -7 -8 -16 -5
-20 8 -67 -21 -58 -35 3 -6 -4 -5 -15 3 -22 13 -22 13 -1 16 17 3 18 7 9 24
-9 16 -8 19 2 13 9 -6 11 -3 6 9 -4 9 -3 14 2 11 5 -3 13 4 16 16 4 11 9 18
12 16 2 -3 0 -14 -6 -25z m169 18 c0 -5 -5 -10 -11 -10 -5 0 -7 5 -4 10 3 6 8
10 11 10 2 0 4 -4 4 -10z m-683 -15 c0 -8 -4 -12 -9 -9 -5 3 -6 10 -3 15 9 13
12 11 12 -6z m443 -5 c0 -5 -5 -10 -11 -10 -5 0 -7 5 -4 10 3 6 8 10 11 10 2
0 4 -4 4 -10z m115 1 c3 -5 0 -13 -6 -17 -7 -4 -9 -3 -5 4 3 5 0 13 -6 15 -9
4 -10 6 -1 6 6 1 14 -3 18 -8z m645 -1 c0 -5 -5 -10 -11 -10 -5 0 -7 5 -4 10
3 6 8 10 11 10 2 0 4 -4 4 -10z m-1430 -19 c0 -5 -10 -16 -23 -24 -19 -12 -24
-13 -24 -2 0 8 4 12 8 9 4 -2 14 2 21 10 15 18 18 19 18 7z m170 5 c0 -3 -4
-8 -10 -11 -5 -3 -10 -1 -10 4 0 6 5 11 10 11 6 0 10 -2 10 -4z m75 -18 c-1
-13 -3 -26 -4 -30 0 -5 -9 -8 -18 -8 -15 0 -16 2 -3 10 8 5 16 15 16 22 3 24
4 28 8 28 2 0 2 -10 1 -22z m1219 14 c2 -4 1 -14 -3 -21 -6 -9 -10 -7 -14 8
-5 20 7 29 17 13z m-779 -30 c-3 -3 -11 0 -18 7 -9 10 -8 11 6 5 10 -3 15 -9
12 -12z m-1485 3 c0 -1 -10 -10 -22 -21 -12 -10 -18 -13 -14 -6 4 7 2 12 -6
12 -11 0 -11 2 0 8 11 7 42 12 42 7z m2250 -30 c0 -8 -4 -15 -10 -15 -5 0 -7
7 -4 15 4 8 8 15 10 15 2 0 4 -7 4 -15z m-1485 -5 c3 -5 1 -10 -4 -10 -6 0
-11 5 -11 10 0 6 2 10 4 10 3 0 8 -4 11 -10z m385 0 c0 -5 -5 -10 -11 -10 -5
0 -7 5 -4 10 3 6 8 10 11 10 2 0 4 -4 4 -10z m316 -6 c-1 -8 -6 -17 -11 -21
-4 -4 -5 -2 -1 5 4 6 2 12 -3 12 -6 0 -11 4 -11 8 0 5 6 9 14 9 7 0 13 -6 12
-13z m-573 -11 c-5 -15 -4 -16 8 -7 19 15 52 14 39 -1 -5 -7 -9 -14 -7 -16 1
-2 0 -3 -2 -2 -10 6 -29 -20 -25 -32 3 -7 0 -16 -7 -21 -8 -5 -10 -3 -5 5 5 7
1 20 -9 31 -13 15 -14 23 -5 39 13 25 22 28 13 4z m796 -48 c0 -5 -6 -2 -13 7
-7 10 -15 16 -17 13 -3 -2 -5 5 -5 16 0 19 1 19 18 -3 10 -13 18 -27 17 -33z
m-937 38 c-6 -2 -10 -9 -6 -14 3 -5 0 -9 -5 -9 -12 0 -14 13 -4 23 3 4 11 7
17 6 6 0 5 -3 -2 -6z m404 -25 c4 -6 3 -8 -3 -5 -6 4 -10 -3 -10 -17 0 -18 4
-23 16 -19 9 4 13 3 10 -1 -11 -12 -49 -15 -49 -4 0 6 -7 5 -17 -3 -15 -12
-16 -12 -8 1 10 16 16 36 18 62 1 12 5 14 19 7 9 -5 20 -14 24 -21z m-89 7 c0
-8 -4 -12 -9 -9 -5 3 -6 10 -3 15 9 13 12 11 12 -6z m30 -7 c-3 -8 -6 -5 -6 6
-1 11 2 17 5 13 3 -3 4 -12 1 -19z m383 12 c0 -5 -5 -10 -11 -10 -5 0 -7 5 -4
10 3 6 8 10 11 10 2 0 4 -4 4 -10z m495 -19 c-1 -10 -10 -15 -21 -13 -26 5
-31 12 -10 12 9 0 15 4 12 8 -3 5 1 9 8 9 8 0 13 -7 11 -16z m-530 -1 c-3 -5
-14 -10 -23 -10 -15 0 -15 2 -2 10 20 13 33 13 25 0z m-360 -27 c-5 -10 -8
-26 -9 -35 0 -9 -4 -15 -8 -12 -9 6 -6 44 5 44 4 0 5 5 2 10 -3 6 -1 10 5 10
8 0 9 -7 5 -17z m1020 -1 c-3 -3 -11 0 -18 7 -9 10 -8 11 6 5 10 -3 15 -9 12
-12z m-675 -23 c0 -5 6 -7 13 -4 6 4 1 -3 -12 -14 -15 -14 -18 -21 -9 -21 8 0
20 6 27 13 11 10 13 10 7 0 -4 -8 -2 -13 5 -13 8 0 6 -6 -4 -18 -13 -14 -14
-21 -5 -30 9 -9 6 -10 -12 -7 -27 5 -39 15 -19 15 12 0 12 2 0 9 -20 13 -23
41 -5 48 11 4 12 9 3 19 -8 10 -8 14 0 14 6 0 11 -5 11 -11z m245 -22 c0 -18
-7 -32 -15 -35 -12 -3 -12 -2 -2 6 15 10 15 18 2 43 -6 10 -5 16 3 16 8 0 12
-13 12 -30z m231 -13 c0 -13 -2 -22 -5 -19 -3 3 -6 17 -7 31 0 13 2 22 5 19 3
-3 6 -17 7 -31z m-256 6 c0 -5 -5 -10 -11 -10 -5 0 -7 5 -4 10 3 6 8 10 11 10
2 0 4 -4 4 -10z m-440 -100 c0 -5 -4 -10 -10 -10 -5 0 -10 5 -10 10 0 6 5 10
10 10 6 0 10 -4 10 -10z m230 -3 c0 -8 -7 -14 -15 -14 -11 0 -12 4 -4 14 6 7
13 13 15 13 2 0 4 -6 4 -13z m-731 -63 c6 -1 16 -2 23 -3 7 -1 4 -9 -7 -21
-14 -15 -15 -20 -4 -20 9 -1 5 -8 -10 -20 -13 -11 -18 -20 -12 -20 11 0 10
-34 -1 -45 -3 -3 -4 -19 -2 -35 4 -35 -1 -38 -17 -9 -9 17 -8 20 2 14 9 -6 11
-3 6 8 -3 9 -2 19 3 22 7 4 7 34 0 43 -2 1 -3 10 -4 20 0 11 -7 26 -14 35 -11
13 -10 17 4 25 11 6 13 11 5 16 -6 4 -11 12 -11 19 0 6 6 2 14 -9 8 -10 19
-20 25 -20z m926 6 c-3 -5 -12 -10 -18 -10 -7 0 -6 4 3 10 19 12 23 12 15 0z
m668 -8 c16 -18 16 -19 -3 -17 -11 1 -23 5 -27 10 -5 4 -2 4 6 0 11 -6 13 -4
8 8 -8 22 -4 21 16 -1z m-1162 -26 c-6 -7 -8 -16 -4 -19 3 -4 11 1 18 10 9 13
14 13 20 3 5 -9 4 -11 -3 -6 -7 4 -12 1 -12 -8 0 -19 -11 -21 -27 -5 -7 7 -7
17 1 34 6 14 13 20 14 14 2 -5 -1 -16 -7 -23z m464 -56 c-3 -5 -14 -10 -23 -9
-14 0 -13 2 3 9 27 11 27 11 20 0z m25 -25 c5 3 12 1 15 -5 8 -13 -40 -9 -52
5 -4 4 -2 5 5 1 7 -4 12 -2 13 6 0 10 2 10 6 0 2 -6 9 -10 13 -7z m691 -8 c-8
-8 -14 -7 -23 2 -11 10 -9 11 6 5 15 -6 17 -4 11 6 -6 9 -4 11 4 5 9 -5 10
-10 2 -18z m-712 -23 c3 -4 -2 -4 -11 -1 -10 3 -20 2 -23 -3 -4 -6 -1 -10 4
-10 6 0 11 -5 11 -11 0 -5 -4 -7 -10 -4 -5 3 -10 2 -10 -4 0 -5 6 -11 13 -14
6 -2 9 -8 5 -12 -12 -13 -21 3 -23 39 -2 29 1 34 18 30 11 -2 22 -6 26 -10z
m720 -20 c4 3 8 -1 8 -8 0 -22 -23 -14 -24 8 -1 12 1 15 4 8 3 -6 8 -10 12 -8z
m-104 -3 c3 -5 2 -12 -3 -15 -5 -3 -9 1 -9 9 0 17 3 19 12 6z m-592 -55 c8 5
7 2 -1 -7 -11 -12 -14 -12 -22 1 -5 8 -10 20 -10 25 1 6 5 2 11 -8 6 -9 16
-14 22 -11z m688 1 c-10 -9 -11 -8 -5 6 3 10 9 15 12 12 3 -3 0 -11 -7 -18z
m-731 -7 c0 -5 -5 -10 -11 -10 -5 0 -7 5 -4 10 3 6 8 10 11 10 2 0 4 -4 4 -10z
m761 3 c-8 -3 -9 -8 -3 -12 6 -4 5 -11 -4 -19 -12 -11 -13 -9 -10 10 3 13 5
24 5 26 1 1 7 2 14 1 8 0 8 -2 -2 -6z m-2481 -28 c0 -8 -4 -15 -10 -15 -5 0
-7 7 -4 15 4 8 8 15 10 15 2 0 4 -7 4 -15z m1740 -5 c0 -5 -4 -10 -10 -10 -5
0 -10 5 -10 10 0 6 5 10 10 10 6 0 10 -4 10 -10z m-23 -64 c-3 -7 1 -23 8 -34
8 -10 11 -22 8 -26 -3 -3 2 -6 13 -6 18 -1 18 -1 0 -11 -14 -9 -23 -7 -39 10
-21 20 -21 21 -2 21 11 0 16 4 10 8 -6 4 -10 13 -9 20 1 6 2 17 3 22 0 6 4 10
7 10 3 0 4 -6 1 -14z m785 -64 c-7 -2 -9 -9 -5 -15 3 -7 2 -8 -2 -4 -16 14
-14 36 3 29 10 -4 12 -7 4 -10z m-2551 -45 c-10 -9 -11 -8 -5 6 3 10 9 15 12
12 3 -3 0 -11 -7 -18z m1785 -14 c3 -18 -24 -49 -34 -38 -4 3 1 11 10 16 10 6
15 18 13 31 -3 11 -1 18 2 14 4 -4 8 -14 9 -23z m784 12 c11 -13 10 -14 -4 -9
-9 3 -16 10 -16 15 0 13 6 11 20 -6z m-2544 -10 c-1 -8 -8 -21 -16 -28 -10
-10 -11 -9 -4 3 5 8 9 18 10 23 3 14 4 17 8 17 2 0 3 -7 2 -15z m1 -50 c0 -8
-4 -12 -9 -9 -4 3 -8 0 -8 -7 0 -7 -3 -9 -6 -6 -4 4 -1 13 6 22 15 19 17 19
17 0z m2523 -140 c-8 -10 -7 -16 7 -24 10 -6 13 -11 7 -11 -18 0 -37 27 -24
35 6 3 7 11 4 17 -4 7 -2 8 5 4 9 -6 9 -11 1 -21z m35 -6 c-4 -5 -12 -9 -18
-8 -9 0 -8 2 1 6 6 2 9 10 6 15 -4 7 -2 8 5 4 6 -4 9 -12 6 -17z m-2489 -76
c-7 -7 -26 7 -26 19 0 6 6 6 15 -2 9 -7 13 -15 11 -17z m2494 19 c0 -5 -7 -9
-15 -9 -8 0 -12 4 -9 9 3 4 9 8 15 8 5 0 9 -4 9 -8z"/>
<path d="M2576 4412 c-3 -5 -1 -14 3 -20 6 -10 10 -10 20 1 9 12 8 16 -3 20
-9 4 -17 3 -20 -1z"/>
<path d="M667 3309 c7 -7 15 -10 18 -7 3 3 -2 9 -12 12 -14 6 -15 5 -6 -5z"/>
<path d="M3510 2120 c0 -5 5 -10 11 -10 5 0 7 5 4 10 -3 6 -8 10 -11 10 -2 0
-4 -4 -4 -10z"/>
<path d="M3145 2090 c3 -5 10 -10 16 -10 5 0 9 5 9 10 0 6 -7 10 -16 10 -8 0
-12 -4 -9 -10z"/>
<path d="M3557 2036 c-4 -10 -1 -13 8 -9 8 3 12 9 9 14 -7 12 -11 11 -17 -5z"/>
<path d="M3620 1991 c-8 -16 -6 -23 11 -34 15 -11 17 -16 7 -20 -9 -4 -9 -6
-1 -6 18 -1 26 18 9 25 -9 3 -13 14 -10 30 5 29 -2 31 -16 5z"/>
<path d="M3185 1880 c-3 -6 1 -7 9 -4 18 7 21 14 7 14 -6 0 -13 -4 -16 -10z"/>
<path d="M3297 1863 c-4 -3 -7 -11 -7 -17 0 -6 5 -5 12 2 6 6 9 14 7 17 -3 3
-9 2 -12 -2z"/>
<path d="M1887 1085 c-12 -11 -17 -12 -20 -2 -4 9 -6 9 -6 0 -2 -21 16 -23 34
-3 21 23 14 27 -8 5z"/>
<path d="M2100 1061 c-7 -13 -7 -22 0 -26 11 -7 11 -8 14 23 3 27 0 28 -14 3z"/>
<path d="M2420 962 c0 -6 -8 -9 -17 -6 -15 5 -16 4 -3 -5 16 -11 40 3 27 16
-4 3 -7 1 -7 -5z"/>
<path d="M1671 802 c-1 -8 -6 -10 -13 -6 -7 4 -5 -2 5 -13 9 -11 14 -23 10
-26 -3 -4 -1 -7 6 -7 7 0 11 7 8 15 -4 8 -2 17 3 20 6 4 10 12 10 18 0 8 -3 7
-9 -2 -7 -11 -9 -11 -14 0 -4 11 -6 11 -6 1z"/>
<path d="M2565 441 c-3 -5 -2 -12 3 -15 5 -3 9 1 9 9 0 17 -3 19 -12 6z"/>
<path d="M2870 4440 c0 -5 5 -10 11 -10 5 0 7 5 4 10 -3 6 -8 10 -11 10 -2 0
-4 -4 -4 -10z"/>
<path d="M2415 4400 c-3 -5 -1 -10 4 -10 6 0 11 5 11 10 0 6 -2 10 -4 10 -3 0
-8 -4 -11 -10z"/>
<path d="M2676 4353 c-6 -14 -5 -15 5 -6 7 7 10 15 7 18 -3 3 -9 -2 -12 -12z"/>
<path d="M2506 4283 c-6 -14 -5 -15 5 -6 7 7 10 15 7 18 -3 3 -9 -2 -12 -12z"/>
<path d="M2130 4259 c0 -5 -6 -7 -12 -3 -9 5 -9 3 1 -9 15 -19 33 -13 24 8 -6
17 -13 20 -13 4z"/>
<path d="M2430 4261 c0 -6 4 -13 10 -16 6 -3 7 1 4 9 -7 18 -14 21 -14 7z"/>
<path d="M2013 4165 c0 -8 4 -12 9 -9 5 3 6 10 3 15 -9 13 -12 11 -12 -6z"/>
<path d="M1935 4140 c-3 -5 -1 -10 4 -10 6 0 11 5 11 10 0 6 -2 10 -4 10 -3 0
-8 -4 -11 -10z"/>
<path d="M2227 4129 c7 -9 9 -20 5 -25 -4 -4 1 -2 11 5 9 7 17 16 17 19 0 3
-3 2 -7 -1 -3 -4 -13 -1 -22 6 -14 10 -14 10 -4 -4z"/>
<path d="M1880 4081 c0 -7 -4 -10 -8 -7 -5 3 -9 -2 -9 -10 0 -13 2 -13 16 0 8
9 12 19 8 22 -4 4 -7 2 -7 -5z"/>
<path d="M2430 4076 c0 -2 8 -10 18 -17 15 -13 16 -12 3 4 -13 16 -21 21 -21
13z"/>
<path d="M2375 4039 c-5 -8 -4 -10 0 -6 5 4 15 -3 22 -15 7 -13 12 -18 13 -12
0 5 -6 18 -13 29 -12 15 -15 16 -22 4z"/>
<path d="M2420 4040 c-9 -6 -10 -10 -3 -10 6 0 15 5 18 10 8 12 4 12 -15 0z"/>
<path d="M2875 4039 c-2 -3 9 -5 26 -5 16 0 29 3 29 7 0 8 -50 7 -55 -2z"/>
<path d="M2435 4019 c-4 -6 -5 -12 -2 -15 2 -3 7 2 10 11 7 17 1 20 -8 4z"/>
<path d="M2350 4010 c-7 -4 -10 -13 -6 -19 4 -6 2 -21 -5 -33 -6 -13 -8 -20
-4 -16 4 4 16 3 26 -2 12 -7 20 -6 25 2 4 7 3 8 -4 4 -8 -5 -12 0 -12 13 0 11
5 23 10 26 6 3 10 10 10 15 0 12 -25 19 -40 10z m24 -21 c-3 -5 -10 -7 -15 -3
-5 3 -7 10 -3 15 3 5 10 7 15 3 5 -3 7 -10 3 -15z"/>
<path d="M2860 4016 c0 -2 7 -6 15 -10 8 -3 15 -1 15 4 0 6 -7 10 -15 10 -8 0
-15 -2 -15 -4z"/>
<path d="M2905 4001 c-5 -16 -11 -19 -23 -12 -9 4 -23 6 -31 3 -10 -3 -11 0
-5 9 7 12 5 12 -9 0 -9 -7 -15 -16 -12 -20 2 -4 -5 -22 -16 -41 -19 -31 -19
-34 -3 -49 12 -11 14 -12 9 -2 -6 11 -4 13 10 7 15 -5 16 -4 5 9 -7 8 -17 12
-23 8 -6 -3 -7 -1 -3 5 5 9 13 9 28 1 15 -8 19 -8 14 0 -4 6 -3 11 3 11 5 0
11 -3 14 -7 5 -10 -1 12 -9 32 -3 8 -1 15 4 15 6 0 12 -6 15 -12 2 -7 3 -5 2
5 -3 19 5 22 23 7 6 -6 10 -7 7 -4 -2 4 0 15 6 26 6 11 8 22 6 25 -3 2 -8 -5
-12 -16z m-60 -43 c-1 -13 -6 -21 -11 -19 -5 1 -7 8 -5 15 2 6 4 16 4 23 0 7
3 10 7 8 4 -2 6 -14 5 -27z"/>
<path d="M2304 3978 c3 -15 8 -33 12 -40 4 -6 -7 -2 -24 11 -22 16 -30 18 -26
7 4 -11 0 -14 -15 -11 -14 3 -19 0 -15 -7 5 -8 1 -9 -12 -5 -19 7 -19 7 0 -8
17 -13 22 -13 37 1 16 15 21 14 53 -11 20 -15 36 -23 36 -17 0 6 -5 12 -10 14
-11 3 -16 35 -9 53 2 6 0 11 -5 12 -5 1 -13 7 -18 15 -5 8 -7 4 -4 -14z"/>
<path d="M2410 3979 c0 -5 5 -7 10 -4 6 3 10 8 10 11 0 2 -4 4 -10 4 -5 0 -10
-5 -10 -11z"/>
<path d="M2175 3921 c-3 -5 -2 -12 3 -15 5 -3 9 1 9 9 0 17 -3 19 -12 6z"/>
<path d="M2340 3926 c0 -2 7 -7 16 -10 8 -3 12 -2 9 4 -6 10 -25 14 -25 6z"/>
<path d="M1666 3911 c-4 -5 1 -8 9 -7 21 3 31 16 12 16 -9 0 -18 -4 -21 -9z"/>
<path d="M2108 3913 c7 -3 16 -2 19 1 4 3 -2 6 -13 5 -11 0 -14 -3 -6 -6z"/>
<path d="M2094 3884 c4 -26 20 -33 40 -18 11 7 16 17 12 21 -4 4 -11 1 -16 -7
-6 -8 -10 -10 -10 -4 0 7 -6 14 -14 17 -8 3 -13 0 -12 -9z"/>
<path d="M1643 3871 c0 -11 5 -18 9 -15 4 3 5 11 1 19 -7 21 -12 19 -10 -4z"/>
<path d="M1579 3828 c-6 -21 -5 -37 2 -32 5 3 7 10 4 15 -4 5 -2 9 3 9 17 0
22 -13 9 -28 -10 -13 -9 -14 8 -5 11 7 26 8 35 3 19 -10 48 4 31 14 -6 4 -11
1 -11 -6 0 -8 -4 -7 -11 4 -5 9 -16 15 -23 12 -8 -3 -17 -1 -21 5 -5 10 -24
15 -26 9z"/>
<path d="M1710 3795 c0 -8 4 -15 10 -15 5 0 7 7 4 15 -4 8 -8 15 -10 15 -2 0
-4 -7 -4 -15z"/>
<path d="M1530 3780 c0 -5 5 -10 11 -10 5 0 7 5 4 10 -3 6 -8 10 -11 10 -2 0
-4 -4 -4 -10z"/>
<path d="M1743 3779 c-5 -5 -19 -11 -31 -12 -11 0 -18 -5 -16 -9 3 -5 10 -6
15 -2 5 3 17 0 26 -8 13 -10 15 -10 9 0 -4 7 -2 19 4 27 14 17 9 20 -7 4z"/>
<path d="M1573 3765 c0 -7 6 -11 14 -8 7 3 13 6 13 8 0 2 -6 5 -13 8 -8 3 -14
-1 -14 -8z"/>
<path d="M2273 3765 c0 -8 4 -12 9 -9 5 3 6 10 3 15 -9 13 -12 11 -12 -6z"/>
<path d="M2320 3715 c-12 -13 -27 -22 -33 -18 -6 4 -7 1 -2 -6 5 -9 15 -5 36
15 16 15 29 29 29 31 0 7 -8 1 -30 -22z"/>
<path d="M2614 3725 c-12 -8 -23 -12 -26 -10 -3 3 -4 -5 -3 -18 1 -12 -1 -27
-6 -32 -4 -6 -4 -17 1 -25 9 -13 10 -13 10 0 0 13 1 13 10 0 8 -13 10 -12 10
3 0 9 -5 17 -11 17 -5 0 -7 5 -4 10 4 6 12 7 18 4 9 -5 9 -4 0 6 -12 13 -6 43
7 35 4 -3 10 2 14 10 7 19 6 19 -20 0z"/>
<path d="M2277 3719 c7 -7 15 -10 18 -7 3 3 -2 9 -12 12 -14 6 -15 5 -6 -5z"/>
<path d="M2753 3649 c-2 -23 3 -25 10 -4 4 8 3 16 -1 19 -4 3 -9 -4 -9 -15z"/>
<path d="M2871 3649 c5 -11 16 -16 24 -13 12 5 13 2 8 -12 -6 -18 -6 -18 10
-2 23 23 21 27 -9 23 -16 -1 -24 2 -21 10 3 6 -1 12 -8 12 -10 0 -11 -5 -4
-18z"/>
<path d="M2639 3637 c6 -6 21 -12 33 -14 22 -3 22 -2 3 9 -28 17 -51 20 -36 5z"/>
<path d="M495 3620 c-3 -5 -1 -10 4 -10 6 0 11 5 11 10 0 6 -2 10 -4 10 -3 0
-8 -4 -11 -10z"/>
<path d="M2931 3607 c-13 -21 -12 -21 5 -5 10 10 16 20 13 22 -3 3 -11 -5 -18
-17z"/>
<path d="M2850 3600 c0 -5 5 -10 10 -10 6 0 10 5 10 10 0 6 -4 10 -10 10 -5 0
-10 -4 -10 -10z"/>
<path d="M2747 3577 c-13 -10 -14 -15 -3 -29 11 -15 13 -15 23 1 16 25 2 45
-20 28z m23 -13 c0 -8 -19 -13 -24 -6 -3 5 1 9 9 9 8 0 15 -2 15 -3z"/>
<path d="M2830 3580 c0 -5 5 -10 11 -10 5 0 7 5 4 10 -3 6 -8 10 -11 10 -2 0
-4 -4 -4 -10z"/>
<path d="M551 3556 c-15 -17 -1 -28 19 -15 11 6 12 9 2 9 -7 0 -10 5 -7 10 9
15 -1 12 -14 -4z"/>
<path d="M450 3540 c0 -5 5 -10 11 -10 5 0 7 5 4 10 -3 6 -8 10 -11 10 -2 0
-4 -4 -4 -10z"/>
<path d="M2776 3542 c-2 -4 -1 -14 4 -22 7 -11 9 -9 7 8 -1 24 -3 26 -11 14z"/>
<path d="M593 3525 c0 -8 4 -12 9 -9 5 3 6 10 3 15 -9 13 -12 11 -12 -6z"/>
<path d="M610 3490 c-6 -11 -8 -20 -6 -20 3 0 10 9 16 20 6 11 8 20 6 20 -3 0
-10 -9 -16 -20z"/>
<path d="M1623 3503 c-18 -7 -16 -20 2 -20 8 0 12 4 9 8 -2 4 2 10 8 12 7 3 9
5 3 5 -5 0 -16 -2 -22 -5z"/>
<path d="M2736 3495 c-4 -11 -4 -16 0 -12 4 4 13 2 21 -4 10 -9 13 -8 13 5 0
10 -4 15 -9 12 -5 -4 -11 -1 -13 6 -3 7 -7 4 -12 -7z"/>
<path d="M2946 3494 c-3 -8 -11 -12 -17 -8 -8 5 -9 3 -5 -5 6 -9 13 -8 27 5
21 19 23 24 10 24 -5 0 -12 -7 -15 -16z"/>
<path d="M2787 3484 c6 -15 23 -19 23 -5 0 5 -7 11 -14 14 -10 4 -13 1 -9 -9z"/>
<path d="M2977 3493 c-4 -3 -7 -13 -7 -21 0 -18 13 -7 16 13 2 17 1 18 -9 8z"/>
<path d="M3050 3479 c0 -5 5 -7 10 -4 6 3 10 8 10 11 0 2 -4 4 -10 4 -5 0 -10
-5 -10 -11z"/>
<path d="M3255 3480 c-3 -5 -1 -10 4 -10 6 0 11 5 11 10 0 6 -2 10 -4 10 -3 0
-8 -4 -11 -10z"/>
<path d="M3310 3476 c18 -23 22 -48 7 -43 -7 2 -13 9 -13 15 -3 23 -4 24 -16
15 -11 -8 -33 -10 -40 -4 -2 2 -12 4 -24 6 -16 4 -20 0 -19 -18 1 -12 -5 -27
-13 -33 -12 -9 -12 -13 -2 -19 9 -5 11 -4 6 3 -4 7 -3 12 3 12 5 0 11 -5 13
-12 3 -7 9 -8 19 -2 19 12 32 12 42 -1 5 -6 7 -3 3 7 -3 10 -1 20 4 23 10 6
14 -7 11 -32 -1 -6 3 -14 9 -18 6 -4 7 1 3 11 -4 11 -3 15 5 10 6 -3 13 -2 17
4 3 6 18 8 32 6 25 -5 73 30 73 54 0 18 -20 0 -20 -18 -1 -16 -1 -16 -11 1 -5
9 -15 17 -22 17 -7 0 -6 -4 3 -10 8 -5 11 -13 6 -17 -4 -4 -16 3 -27 16 -10
13 -19 20 -19 16 0 -5 -10 0 -22 11 -21 18 -22 18 -8 0z m-45 -31 c6 -1 16 4
24 9 11 8 13 8 8 0 -8 -15 18 -38 33 -29 6 3 8 11 5 16 -11 16 11 9 28 -9 15
-16 15 -19 2 -19 -8 0 -15 5 -15 10 0 6 -8 3 -18 -6 -16 -15 -19 -15 -31 4
-12 20 -13 20 -32 3 -10 -9 -19 -14 -19 -9 0 4 -7 2 -15 -5 -8 -7 -16 -10 -16
-6 -5 23 -4 32 4 43 5 7 14 10 21 6 6 -4 16 -8 21 -8z"/>
<path d="M3229 3449 c-8 -39 -7 -40 8 -27 9 7 17 11 19 8 1 -3 6 0 11 5 4 6 4
7 -1 3 -5 -4 -15 -3 -23 3 -7 6 -13 10 -14 8z"/>
<path d="M3565 3460 c-16 -7 -17 -9 -3 -9 9 -1 20 4 23 9 7 11 7 11 -20 0z"/>
<path d="M3519 3448 c8 -11 9 -18 3 -18 -6 0 -14 5 -17 10 -3 6 -11 10 -18 10
-6 0 -2 -7 9 -16 12 -10 14 -14 4 -11 -8 2 -22 -2 -31 -10 -14 -12 -17 -12
-22 1 -4 9 -1 15 5 13 6 -1 13 5 15 13 4 12 3 12 -5 1 -6 -7 -11 -9 -13 -3 -2
5 -16 -3 -30 -19 -20 -21 -23 -29 -12 -33 8 -3 11 -2 8 3 -3 5 -1 12 5 16 5 3
10 2 10 -3 0 -12 34 -11 42 2 5 8 8 7 8 -1 0 -7 5 -13 11 -13 5 0 7 5 4 10 -3
6 -1 10 4 10 10 0 15 -14 12 -32 -3 -18 17 -6 27 17 6 14 16 25 22 25 6 0 9
-4 6 -9 -3 -5 2 -15 12 -22 16 -13 16 -12 3 4 -14 17 -13 18 5 15 10 -1 22 -7
26 -13 4 -5 10 -6 14 -2 9 8 1 17 -18 21 -7 2 -21 6 -31 11 -10 4 -24 2 -34
-6 -15 -12 -16 -12 -10 3 3 10 -1 22 -11 30 -15 12 -16 11 -3 -4z m9 -53 c-3
-3 -9 2 -12 12 -6 14 -5 15 5 6 7 -7 10 -15 7 -18z"/>
<path d="M3635 3430 c-3 -5 -1 -10 4 -10 6 0 11 5 11 10 0 6 -2 10 -4 10 -3 0
-8 -4 -11 -10z"/>
<path d="M3685 3420 c-3 -6 1 -7 9 -4 18 7 21 14 7 14 -6 0 -13 -4 -16 -10z"/>
<path d="M3650 3400 c0 -5 5 -10 10 -10 6 0 10 5 10 10 0 6 -4 10 -10 10 -5 0
-10 -4 -10 -10z"/>
<path d="M3719 3393 c-13 -16 -12 -17 4 -4 16 13 21 21 13 21 -2 0 -10 -8 -17
-17z"/>
<path d="M636 3381 c-4 -5 -2 -12 3 -15 5 -4 12 -2 15 3 4 5 2 12 -3 15 -5 4
-12 2 -15 -3z"/>
<path d="M3550 3380 c0 -5 5 -10 11 -10 5 0 7 5 4 10 -3 6 -8 10 -11 10 -2 0
-4 -4 -4 -10z"/>
<path d="M673 3365 c0 -8 4 -12 9 -9 5 3 6 10 3 15 -9 13 -12 11 -12 -6z"/>
<path d="M1476 3369 c2 -4 -4 -12 -13 -18 -10 -6 -13 -11 -6 -11 10 0 43 26
43 34 0 1 -7 3 -15 3 -8 0 -12 -4 -9 -8z"/>
<path d="M3196 3353 c-6 -14 -5 -15 5 -6 7 7 10 15 7 18 -3 3 -9 -2 -12 -12z"/>
<path d="M3157 3336 c-4 -10 -3 -15 3 -11 6 3 10 1 10 -6 0 -7 3 -10 6 -6 3 3
2 13 -4 22 -8 16 -9 16 -15 1z"/>
<path d="M750 3320 c0 -5 5 -10 10 -10 6 0 10 5 10 10 0 6 -4 10 -10 10 -5 0
-10 -4 -10 -10z"/>
<path d="M791 3288 c5 -10 13 -18 16 -18 3 0 3 3 0 7 -4 3 -3 11 3 17 6 8 3
12 -10 12 -15 0 -16 -4 -9 -18z"/>
<path d="M1370 3289 c0 -5 5 -7 10 -4 6 3 10 8 10 11 0 2 -4 4 -10 4 -5 0 -10
-5 -10 -11z"/>
<path d="M3270 3239 c0 -5 5 -7 10 -4 6 3 10 8 10 11 0 2 -4 4 -10 4 -5 0 -10
-5 -10 -11z"/>
<path d="M750 3218 c0 -3 9 -6 20 -5 11 1 20 5 20 9 0 3 -9 6 -20 5 -11 -1
-20 -5 -20 -9z"/>
<path d="M222 3194 c-7 -8 -8 -14 -3 -14 10 0 25 19 20 25 -2 1 -10 -3 -17
-11z"/>
<path d="M195 3171 c7 -12 -5 -42 -14 -36 -4 2 -8 -3 -8 -11 0 -11 6 -9 24 8
27 25 29 34 7 42 -8 3 -13 2 -9 -3z"/>
<path d="M3417 3143 c-4 -3 -7 -11 -7 -17 0 -6 5 -5 12 2 6 6 9 14 7 17 -3 3
-9 2 -12 -2z"/>
<path d="M115 3111 c-3 -5 -2 -12 3 -15 5 -3 9 1 9 9 0 17 -3 19 -12 6z"/>
<path d="M3187 3087 c-3 -8 1 -14 8 -14 7 0 11 6 8 14 -3 7 -6 13 -8 13 -2 0
-5 -6 -8 -13z"/>
<path d="M3336 2994 c-4 -9 -4 -19 -1 -22 2 -3 7 3 11 12 4 9 4 19 1 22 -2 3
-7 -3 -11 -12z"/>
<path d="M3575 2980 c3 -5 8 -10 11 -10 2 0 4 5 4 10 0 6 -5 10 -11 10 -5 0
-7 -4 -4 -10z"/>
<path d="M70 2959 c0 -5 5 -7 10 -4 6 3 10 8 10 11 0 2 -4 4 -10 4 -5 0 -10
-5 -10 -11z"/>
<path d="M3190 2895 c0 -10 29 -24 34 -17 3 6 -3 12 -14 15 -11 3 -20 4 -20 2z"/>
<path d="M873 2842 c15 -16 25 -30 23 -33 -3 -3 7 -5 22 -6 15 -1 20 1 12 4
-21 9 -41 31 -32 36 4 2 1 2 -6 1 -7 -2 -15 3 -18 11 -4 8 -11 15 -17 15 -6 0
1 -13 16 -28z"/>
<path d="M3550 2860 c0 -5 7 -10 16 -10 8 0 12 5 9 10 -3 6 -10 10 -16 10 -5
0 -9 -4 -9 -10z"/>
<path d="M3675 2851 c-3 -5 -2 -12 3 -15 5 -3 9 1 9 9 0 17 -3 19 -12 6z"/>
<path d="M1120 2745 c8 -10 7 -14 -2 -18 -8 -3 -8 -6 -2 -6 10 -1 42 28 33 30
-37 7 -40 7 -29 -6z"/>
<path d="M22 2734 c10 -10 20 -16 22 -13 3 3 -5 11 -17 18 -21 13 -21 12 -5
-5z"/>
<path d="M3295 2720 c-3 -5 -1 -10 4 -10 6 0 11 5 11 10 0 6 -2 10 -4 10 -3 0
-8 -4 -11 -10z"/>
<path d="M1110 2699 c0 -5 5 -7 10 -4 6 3 10 8 10 11 0 2 -4 4 -10 4 -5 0 -10
-5 -10 -11z"/>
<path d="M3376 2551 c-3 -4 3 -16 13 -25 15 -14 21 -15 27 -4 4 7 4 10 -1 6
-10 -10 -37 11 -29 23 3 5 3 9 0 9 -3 0 -7 -4 -10 -9z"/>
<path d="M3455 2368 c-4 -10 0 -26 8 -38 13 -18 16 -19 27 -5 7 9 10 18 6 22
-3 3 -6 1 -6 -5 0 -7 -5 -12 -11 -12 -5 0 -8 3 -6 8 3 4 1 16 -3 27 -7 18 -9
18 -15 3z"/>
<path d="M4447 2339 c7 -7 15 -10 18 -7 3 3 -2 9 -12 12 -14 6 -15 5 -6 -5z"/>
<path d="M3506 2322 c-3 -5 1 -9 9 -9 8 0 12 4 9 9 -3 4 -7 8 -9 8 -2 0 -6 -4
-9 -8z"/>
<path d="M4414 2318 c-4 -7 -4 -10 1 -6 4 4 15 2 24 -5 14 -11 14 -10 2 6 -16
20 -18 21 -27 5z"/>
<path d="M3510 2280 c13 -24 17 -25 17 -5 0 8 -6 16 -14 19 -11 4 -11 1 -3
-14z"/>
<path d="M4450 2290 c-9 -6 -10 -10 -3 -10 6 0 15 5 18 10 8 12 4 12 -15 0z"/>
<path d="M4366 2278 c3 -4 9 -8 15 -8 5 0 9 4 9 8 0 5 -7 9 -15 9 -8 0 -12 -4
-9 -9z"/>
<path d="M3550 2246 c0 -2 7 -7 16 -10 8 -3 12 -2 9 4 -6 10 -25 14 -25 6z"/>
<path d="M4317 2213 c6 -16 5 -16 -10 -4 -15 12 -21 9 -18 -11 0 -5 -6 -8 -14
-8 -8 0 -15 -5 -15 -11 0 -5 -4 -8 -8 -5 -5 3 -9 -1 -9 -9 0 -9 12 -5 35 13
20 15 37 26 39 25 11 -9 21 -1 17 12 -4 8 -10 15 -15 15 -4 0 -5 -8 -2 -17z"/>
<path d="M4383 2194 c3 -4 2 -15 -3 -25 -8 -14 -6 -17 10 -16 12 1 16 5 11 10
-5 5 -7 16 -4 23 3 8 -1 14 -8 14 -7 0 -9 -3 -6 -6z"/>
<path d="M4405 2180 c-3 -5 -2 -10 4 -10 5 0 13 5 16 10 3 6 2 10 -4 10 -5 0
-13 -4 -16 -10z"/>
<path d="M4365 2131 c-3 -5 -2 -12 3 -15 5 -3 9 1 9 9 0 17 -3 19 -12 6z"/>
<path d="M4162 2121 c-11 -7 -11 -9 0 -14 9 -3 15 1 15 9 0 8 -1 14 -1 14 -1
0 -7 -4 -14 -9z"/>
<path d="M4279 1993 c-13 -16 -12 -17 4 -4 9 7 17 15 17 17 0 8 -8 3 -21 -13z"/>
<path d="M3996 1991 c-3 -5 2 -15 12 -22 15 -12 16 -12 5 2 -7 9 -10 19 -6 22
3 4 4 7 0 7 -3 0 -8 -4 -11 -9z"/>
<path d="M4216 1974 c-8 -21 -8 -24 5 -24 5 0 8 4 5 9 -4 5 -1 11 6 13 8 3 9
6 1 11 -6 4 -14 0 -17 -9z"/>
<path d="M3851 1924 c0 -11 3 -14 6 -6 3 7 2 16 -1 19 -3 4 -6 -2 -5 -13z"/>
<path d="M4122 1887 c-16 -17 -18 -26 -11 -37 9 -12 10 -12 5 4 -4 13 -2 17 8
13 8 -3 13 1 12 11 -1 11 5 16 17 14 20 -3 23 4 3 11 -8 3 -23 -4 -34 -16z"/>
<path d="M4025 1800 c-3 -6 1 -7 9 -4 18 7 21 14 7 14 -6 0 -13 -4 -16 -10z"/>
<path d="M3197 1653 c-10 -9 -9 -23 1 -23 5 0 9 7 9 15 0 17 -1 18 -10 8z"/>
<path d="M3542 1594 c-10 -11 -10 -19 2 -41 8 -16 15 -24 16 -20 0 4 10 3 23
-3 17 -9 14 -4 -10 18 -22 22 -28 33 -20 41 6 6 9 13 6 15 -2 2 -10 -2 -17
-10z"/>
<path d="M1395 1589 c-10 -15 3 -25 16 -12 7 7 7 13 1 17 -6 3 -14 1 -17 -5z"/>
<path d="M1240 1569 c0 -5 4 -9 10 -9 5 0 7 -7 4 -15 -4 -8 -1 -15 6 -15 6 0
9 4 5 9 -3 6 3 14 12 20 10 6 14 11 8 11 -5 1 -18 3 -27 5 -10 2 -18 -1 -18
-6z"/>
<path d="M1450 1568 c0 -16 11 -23 33 -19 4 0 7 -3 7 -9 0 -5 7 -10 15 -10 12
0 12 3 -2 18 -10 10 -20 14 -22 9 -1 -4 -9 0 -17 10 -13 17 -13 17 -14 1z"/>
<path d="M3514 1574 c3 -7 0 -14 -8 -17 -11 -5 -14 -23 -7 -59 0 -5 9 -8 19
-8 15 0 15 2 2 10 -11 8 -3 9 27 6 35 -4 41 -3 30 9 -6 7 -14 13 -17 13 -20
-1 -30 3 -26 11 3 4 -2 17 -10 27 -9 10 -13 14 -10 8z m13 -39 c0 -8 -6 -16
-13 -19 -8 -3 -12 3 -11 15 1 22 24 26 24 4z"/>
<path d="M3676 1564 c-11 -10 -16 -11 -16 -3 0 7 -3 10 -6 6 -12 -12 7 -28 20
-18 7 6 15 9 18 6 2 -3 5 2 5 10 0 19 -2 19 -21 -1z"/>
<path d="M3630 1529 c0 -5 5 -7 10 -4 6 3 10 8 10 11 0 2 -4 4 -10 4 -5 0 -10
-5 -10 -11z"/>
<path d="M3536 1473 c-6 -14 -5 -15 5 -6 7 7 10 15 7 18 -3 3 -9 -2 -12 -12z"/>
<path d="M1230 1439 c0 -5 5 -7 10 -4 6 3 10 8 10 11 0 2 -4 4 -10 4 -5 0 -10
-5 -10 -11z"/>
<path d="M1210 1402 c0 -5 7 -9 15 -9 8 0 12 4 9 9 -3 4 -9 8 -15 8 -5 0 -9
-4 -9 -8z"/>
<path d="M1690 1360 c0 -5 6 -10 13 -10 8 0 7 -4 -3 -10 -8 -5 -10 -10 -5 -10
6 0 15 4 22 8 9 6 7 11 -7 20 -12 7 -20 8 -20 2z"/>
<path d="M1132 1331 c-10 -6 -10 -10 0 -19 8 -6 19 -7 26 -3 10 6 10 10 0 19
-8 6 -19 7 -26 3z"/>
<path d="M1630 1320 c0 -5 5 -10 11 -10 5 0 7 5 4 10 -3 6 -8 10 -11 10 -2 0
-4 -4 -4 -10z"/>
<path d="M3210 1322 c0 -15 11 -21 27 -15 12 5 12 7 1 14 -17 11 -28 11 -28 1z"/>
<path d="M2755 1300 c-3 -5 -1 -10 4 -10 6 0 11 5 11 10 0 6 -2 10 -4 10 -3 0
-8 -4 -11 -10z"/>
<path d="M1090 1265 c-9 -10 -9 -15 -1 -15 6 0 11 5 11 11 0 5 5 7 12 3 7 -4
8 -3 4 4 -9 15 -11 15 -26 -3z"/>
<path d="M2315 1240 c3 -5 8 -10 11 -10 2 0 4 5 4 10 0 6 -5 10 -11 10 -5 0
-7 -4 -4 -10z"/>
<path d="M2400 1230 c-13 -9 -13 -10 0 -10 12 -1 12 -3 -2 -11 -10 -5 -15 -16
-12 -24 7 -18 20 -20 22 -2 0 6 3 22 6 35 6 25 6 25 -14 12z"/>
<path d="M3220 1236 c0 -2 7 -9 15 -16 9 -7 15 -8 15 -2 0 5 -7 12 -15 16 -8
3 -15 4 -15 2z"/>
<path d="M2703 1198 l-21 -23 22 -17 c18 -13 23 -13 23 -3 0 8 -4 13 -8 12 -4
-1 -7 1 -8 6 -3 20 0 28 7 23 5 -3 9 1 9 9 0 19 0 19 -24 -7z"/>
<path d="M3002 1191 c-8 -4 -13 -11 -13 -15 3 -19 0 -27 -7 -22 -5 3 -9 -1 -9
-9 0 -20 24 0 32 26 4 11 11 16 17 13 7 -4 8 -2 4 4 -8 14 -7 14 -24 3z"/>
<path d="M1670 1158 c-11 -12 -17 -24 -14 -27 4 -3 9 0 11 7 3 6 10 9 16 5 7
-3 9 -3 5 2 -4 4 -3 14 3 22 19 22 1 15 -21 -9z"/>
<path d="M1975 1160 c-3 -5 -1 -10 4 -10 6 0 11 5 11 10 0 6 -2 10 -4 10 -3 0
-8 -4 -11 -10z"/>
<path d="M1785 1142 c-14 -10 -17 -32 -5 -32 6 0 10 7 10 16 0 8 5 12 10 9 6
-3 10 -1 10 4 0 13 -11 14 -25 3z"/>
<path d="M2839 1145 c-5 -20 -4 -53 2 -66 5 -9 4 -20 -2 -26 -6 -6 -5 -10 4
-10 9 0 13 11 12 31 -1 17 2 36 7 43 5 7 7 17 3 23 -6 10 -24 14 -26 5z m16
-14 c3 -5 2 -12 -3 -15 -5 -3 -9 1 -9 9 0 17 3 19 12 6z"/>
<path d="M1934 1129 c-4 -7 -3 -9 4 -5 5 3 13 0 15 -6 4 -9 6 -10 6 -1 1 17
-16 25 -25 12z"/>
<path d="M1973 1097 c0 -12 1 -17 4 -10 2 7 12 9 21 6 18 -6 17 -5 -8 14 -13
10 -16 8 -17 -10z"/>
<path d="M1985 1070 c-3 -6 1 -7 9 -4 18 7 21 14 7 14 -6 0 -13 -4 -16 -10z"/>
<path d="M2357 1057 c-3 -8 -2 -20 3 -26 5 -9 8 -4 8 13 0 29 -3 32 -11 13z"/>
<path d="M2225 1041 c-6 -11 13 -26 22 -17 4 3 0 6 -8 6 -11 0 -11 2 1 10 9 6
10 10 3 10 -6 0 -14 -4 -18 -9z"/>
<path d="M2531 1031 c-8 -5 -9 -11 -3 -15 5 -3 12 1 16 9 6 17 6 18 -13 6z"/>
<path d="M1726 1012 c-12 -14 -13 -21 -4 -30 9 -9 9 -12 -2 -12 -13 0 -13 -2
0 -10 18 -12 40 -14 25 -2 -13 9 -17 32 -6 32 12 0 22 28 12 34 -5 3 -16 -3
-25 -12z m24 4 c0 -2 -8 -10 -17 -17 -16 -13 -17 -12 -4 4 13 16 21 21 21 13z"/>
<path d="M1930 1020 c0 -5 5 -10 11 -10 5 0 7 5 4 10 -3 6 -8 10 -11 10 -2 0
-4 -4 -4 -10z"/>
<path d="M2826 1021 c-4 -5 3 -7 14 -4 23 6 26 13 6 13 -8 0 -17 -4 -20 -9z"/>
<path d="M2942 1010 c-25 -23 -28 -32 -9 -24 11 4 42 44 34 44 -2 0 -13 -9
-25 -20z"/>
<path d="M1846 995 c4 -8 8 -15 10 -15 2 0 4 7 4 15 0 8 -4 15 -10 15 -5 0 -7
-7 -4 -15z"/>
<path d="M2220 995 c-9 -10 -9 -15 -1 -15 6 0 11 5 11 11 0 5 5 7 10 4 6 -3
10 -1 10 4 0 16 -16 13 -30 -4z"/>
<path d="M2470 1006 c0 -2 7 -7 16 -10 8 -3 12 -2 9 4 -6 10 -25 14 -25 6z"/>
<path d="M2513 995 c0 -8 4 -12 9 -9 5 3 6 10 3 15 -9 13 -12 11 -12 -6z"/>
<path d="M867 979 c7 -7 15 -10 18 -7 3 3 -2 9 -12 12 -14 6 -15 5 -6 -5z"/>
<path d="M2235 960 c3 -5 8 -10 11 -10 2 0 4 5 4 10 0 6 -5 10 -11 10 -5 0 -7
-4 -4 -10z"/>
<path d="M2830 961 c0 -5 7 -11 14 -14 10 -4 13 -1 9 9 -6 15 -23 19 -23 5z"/>
<path d="M2066 944 c-6 -15 -4 -15 11 -3 10 7 20 15 22 16 2 2 -3 3 -11 3 -9
0 -19 -7 -22 -16z"/>
<path d="M2910 920 c5 -10 16 -22 23 -26 9 -6 9 -5 0 8 -7 8 -10 17 -7 20 2 3
-2 8 -11 12 -13 4 -14 2 -5 -14z"/>
<path d="M3270 921 c0 -6 4 -13 10 -16 6 -3 7 1 4 9 -7 18 -14 21 -14 7z"/>
<path d="M830 900 c0 -6 7 -10 15 -10 8 0 15 2 15 4 0 2 -7 6 -15 10 -8 3 -15
1 -15 -4z"/>
<path d="M1976 902 c-3 -4 4 -9 15 -9 23 -2 25 3 4 10 -8 4 -16 3 -19 -1z"/>
<path d="M2370 889 c0 -5 5 -7 10 -4 6 3 10 8 10 11 0 2 -4 4 -10 4 -5 0 -10
-5 -10 -11z"/>
<path d="M3275 880 c3 -5 8 -10 11 -10 2 0 4 5 4 10 0 6 -5 10 -11 10 -5 0 -7
-4 -4 -10z"/>
<path d="M3104 873 c4 -8 2 -13 -6 -13 -8 0 -9 -3 -3 -8 6 -4 11 -14 13 -22 2
-8 7 -21 12 -30 6 -10 8 -6 6 15 -2 17 -5 31 -6 33 -1 1 -3 6 -4 11 0 5 -5 13
-10 18 -5 5 -6 3 -2 -4z"/>
<path d="M2650 860 c0 -6 -4 -8 -10 -5 -6 3 -7 -1 -4 -10 4 -9 9 -12 13 -8 3
4 10 11 15 14 4 4 3 10 -3 13 -6 4 -11 2 -11 -4z"/>
<path d="M2873 841 c10 -39 -2 -54 -22 -29 -10 12 -26 23 -35 24 -12 2 -14 -1
-7 -9 14 -18 14 -29 -1 -38 -10 -7 -10 -9 0 -9 9 0 9 -8 -4 -31 -8 -17 -11
-28 -6 -25 6 3 13 -1 16 -10 9 -24 7 -28 -7 -15 -10 8 -14 7 -14 -4 0 -8 4
-12 8 -9 4 2 10 0 13 -5 4 -5 1 -11 -6 -14 -7 -2 -6 -3 2 -2 8 0 14 7 13 13
-2 7 6 12 17 12 11 0 20 3 21 8 0 4 2 17 5 30 3 20 1 23 -18 17 -19 -5 -20 -4
-6 5 9 6 15 16 12 24 -3 7 2 13 11 13 9 0 14 -6 11 -13 -3 -8 -1 -16 4 -19 5
-3 7 9 5 26 -4 28 -3 30 13 18 14 -11 15 -11 5 1 -7 8 -13 22 -13 31 0 10 -5
21 -12 25 -8 5 -9 0 -5 -15z m-33 -46 c-6 -8 -5 -16 3 -25 8 -8 8 -11 1 -7
-14 8 -27 -20 -14 -28 6 -4 14 -4 19 -1 5 4 8 -2 7 -11 -4 -25 -23 -27 -36 -4
-6 13 -7 28 -2 39 5 9 8 29 7 44 -2 23 1 26 12 17 9 -8 10 -15 3 -24z"/>
<path d="M2075 840 c-3 -5 -1 -10 4 -10 6 0 11 5 11 10 0 6 -2 10 -4 10 -3 0
-8 -4 -11 -10z"/>
<path d="M2396 824 c-4 -9 -4 -19 -1 -22 3 -3 5 0 5 7 0 7 4 9 10 6 6 -3 7 1
4 9 -8 20 -10 20 -18 0z"/>
<path d="M2910 821 c0 -6 4 -13 10 -16 6 -3 7 1 4 9 -7 18 -14 21 -14 7z"/>
<path d="M825 769 c-4 -6 -4 -13 -1 -16 3 -4 6 -1 6 6 0 7 5 9 12 5 7 -4 8 -3
4 4 -9 15 -13 15 -21 1z"/>
<path d="M2376 758 c3 -5 10 -6 15 -3 13 9 11 12 -6 12 -8 0 -12 -4 -9 -9z"/>
<path d="M2078 733 c6 -2 18 -2 25 0 6 3 1 5 -13 5 -14 0 -19 -2 -12 -5z"/>
<path d="M2516 703 c-6 -14 -5 -15 5 -6 7 7 10 15 7 18 -3 3 -9 -2 -12 -12z"/>
<path d="M3327 679 c7 -7 15 -10 18 -7 3 3 -2 9 -12 12 -14 6 -15 5 -6 -5z"/>
<path d="M2823 652 c-7 -4 -9 -13 -4 -21 6 -9 10 -7 14 8 3 12 4 21 4 21 -1 0
-7 -4 -14 -8z"/>
<path d="M884 628 l-19 -23 23 19 c21 18 27 26 19 26 -2 0 -12 -10 -23 -22z"/>
<path d="M2080 640 c14 -9 13 -11 -9 -14 -5 0 -12 -4 -16 -8 -9 -8 16 -5 31 5
7 4 15 -1 18 -10 4 -10 4 -14 0 -11 -7 7 -34 -15 -34 -28 0 -5 5 -3 12 4 7 7
19 12 28 12 9 0 16 9 17 20 1 11 -2 18 -8 15 -5 -4 -12 1 -15 9 -3 9 -14 16
-23 16 -14 0 -14 -2 -1 -10z"/>
<path d="M2142 613 c-6 -2 -10 -9 -7 -13 3 -5 -8 -16 -26 -25 -30 -16 -30 -17
-12 -30 22 -16 24 -52 2 -66 -8 -5 -9 -9 -3 -9 27 0 39 38 21 68 -10 15 5 16
21 0 9 -9 12 -9 12 0 0 7 -4 12 -10 12 -17 0 -11 25 10 48 20 21 18 26 -8 15z"/>
<path d="M2816 593 c-6 -14 -5 -15 5 -6 7 7 10 15 7 18 -3 3 -9 -2 -12 -12z"/>
<path d="M895 580 c-3 -5 -1 -10 4 -10 6 0 11 5 11 10 0 6 -2 10 -4 10 -3 0
-8 -4 -11 -10z"/>
<path d="M1641 570 c16 -33 16 -33 23 -13 4 9 4 14 0 10 -4 -4 -13 1 -21 11
-12 15 -13 14 -2 -8z"/>
<path d="M2150 570 c0 -5 5 -10 11 -10 5 0 7 5 4 10 -3 6 -8 10 -11 10 -2 0
-4 -4 -4 -10z"/>
<path d="M2516 555 c-9 -26 -7 -32 5 -12 6 10 9 21 6 23 -2 3 -7 -2 -11 -11z"/>
<path d="M2616 559 c2 -4 -3 -15 -12 -23 -12 -13 -13 -20 -5 -30 9 -11 9 -15
0 -18 -7 -2 -9 -10 -5 -17 6 -9 11 -9 24 1 14 11 15 10 8 -7 -6 -16 -5 -17 5
-8 10 10 9 17 -6 33 -16 18 -14 25 8 21 4 -1 3 8 -3 18 -8 16 -6 22 7 30 16 9
16 10 -4 8 -12 0 -20 -4 -17 -8z"/>
<path d="M1670 540 c0 -5 5 -10 11 -10 5 0 7 5 4 10 -3 6 -8 10 -11 10 -2 0
-4 -4 -4 -10z"/>
<path d="M2074 529 c-4 -7 -3 -9 4 -5 5 3 13 0 15 -6 4 -9 6 -10 6 -1 1 17
-16 25 -25 12z"/>
<path d="M3361 516 c-9 -10 -9 -16 -1 -21 6 -4 14 -4 17 -1 4 3 1 6 -7 6 -10
0 -10 3 0 15 7 8 10 15 7 15 -2 0 -10 -6 -16 -14z"/>
<path d="M870 500 c0 -5 5 -10 11 -10 5 0 7 5 4 10 -3 6 -8 10 -11 10 -2 0 -4
-4 -4 -10z"/>
<path d="M1653 495 c0 -8 4 -12 9 -9 5 3 6 10 3 15 -9 13 -12 11 -12 -6z"/>
<path d="M2068 498 c5 -5 16 -8 23 -6 8 3 3 7 -10 11 -17 4 -21 3 -13 -5z"/>
<path d="M2515 500 c-3 -5 -1 -10 4 -10 6 0 11 5 11 10 0 6 -2 10 -4 10 -3 0
-8 -4 -11 -10z"/>
<path d="M1630 466 c0 -2 7 -7 16 -10 8 -3 12 -2 9 4 -6 10 -25 14 -25 6z"/>
<path d="M2115 459 c-4 -6 -5 -12 -2 -15 2 -3 7 2 10 11 7 17 1 20 -8 4z"/>
<path d="M836 442 c-3 -5 1 -9 9 -9 8 0 15 4 15 9 0 4 -4 8 -9 8 -6 0 -12 -4
-15 -8z"/>
<path d="M2076 393 c-6 -14 -5 -15 5 -6 7 7 10 15 7 18 -3 3 -9 -2 -12 -12z"/>
<path d="M2100 406 c0 -2 8 -10 18 -17 15 -13 16 -12 3 4 -13 16 -21 21 -21
13z"/>
<path d="M2552 284 c-7 -8 -8 -14 -3 -14 10 0 25 19 20 25 -2 1 -10 -3 -17
-11z"/>
<path d="M2615 279 c-4 -6 -5 -12 -2 -15 2 -3 7 2 10 11 7 17 1 20 -8 4z"/>
<path d="M3279 288 c-7 -23 -4 -35 7 -35 9 0 11 4 4 12 -5 7 -7 15 -3 18 3 4
3 7 0 7 -4 0 -7 -1 -8 -2z"/>
<path d="M850 235 c0 -8 2 -15 4 -15 2 0 6 7 10 15 3 8 1 15 -4 15 -6 0 -10
-7 -10 -15z"/>
<path d="M2553 235 c0 -8 6 -16 14 -19 11 -4 11 -1 3 14 -13 24 -17 25 -17 5z"/>
<path d="M2613 229 c-2 -23 3 -25 10 -4 4 8 3 16 -1 19 -4 3 -9 -4 -9 -15z"/>
<path d="M3270 236 c0 -2 7 -9 15 -16 13 -11 14 -10 9 4 -5 14 -24 23 -24 12z"/>
<path d="M2580 186 c0 -2 8 -10 18 -17 15 -13 16 -12 3 4 -13 16 -21 21 -21
13z"/>
<path d="M2570 139 c0 -5 5 -7 10 -4 6 3 10 8 10 11 0 2 -4 4 -10 4 -5 0 -10
-5 -10 -11z"/>
<path d="M3406 83 c-3 -3 2 -12 12 -20 16 -14 16 -14 -3 -8 -11 4 -26 9 -32
12 -7 3 -13 0 -13 -6 0 -6 3 -10 8 -10 27 5 34 -1 21 -18 -11 -15 -11 -16 1
-6 21 19 32 15 20 -7 -15 -28 -6 -25 14 5 15 23 15 26 -3 44 -11 11 -22 17
-25 14z"/>
<path d="M3455 20 c3 -5 8 -10 11 -10 2 0 4 5 4 10 0 6 -5 10 -11 10 -5 0 -7
-4 -4 -10z"/>
</g>
</svg>
